<mxfile host="app.diagrams.net" agent="Mozilla/5.0 (Windows NT 10.0; Win64; x64) AppleWebKit/537.36 (KHTML, like Gecko) Chrome/129.0.0.0 Safari/537.36" version="24.7.17">
  <diagram name="Page-1" id="nlvYqGuXLg4bj2HPWoWQ">
    <mxGraphModel dx="1434" dy="738" grid="1" gridSize="10" guides="1" tooltips="1" connect="1" arrows="1" fold="1" page="1" pageScale="1" pageWidth="850" pageHeight="1100" math="0" shadow="0">
      <root>
        <mxCell id="0" />
        <mxCell id="1" parent="0" />
        <mxCell id="6mvIVdEZMa_-6Su6zqdp-1" value="Core Communications" style="rounded=1;whiteSpace=wrap;html=1;dashed=1;align=right;verticalAlign=top;spacingRight=18;spacing=0;arcSize=6;fillColor=#e1d5e7;strokeColor=#9673a6;" vertex="1" parent="1">
          <mxGeometry x="190" y="375" width="520" height="325" as="geometry" />
        </mxCell>
        <mxCell id="6mvIVdEZMa_-6Su6zqdp-2" value="Google Cloud Platform" style="rounded=1;whiteSpace=wrap;html=1;dashed=1;align=right;verticalAlign=top;spacingRight=14;spacing=0;arcSize=6;fillColor=none;strokeColor=#9673a6;" vertex="1" parent="1">
          <mxGeometry x="197" y="395" width="400" height="180" as="geometry" />
        </mxCell>
        <mxCell id="6mvIVdEZMa_-6Su6zqdp-3" value="Transitioning Clients" style="rounded=1;whiteSpace=wrap;html=1;dashed=1;align=right;verticalAlign=top;spacingRight=6;arcSize=6;fontSize=12;spacing=0;" vertex="1" parent="1">
          <mxGeometry x="30.299999999999997" y="447" width="140" height="120" as="geometry" />
        </mxCell>
        <mxCell id="6mvIVdEZMa_-6Su6zqdp-4" value="PCF" style="rounded=1;whiteSpace=wrap;html=1;dashed=1;align=right;verticalAlign=top;spacingRight=18;spacing=2;arcSize=6;fillColor=none;strokeColor=#9673a6;" vertex="1" parent="1">
          <mxGeometry x="197" y="590" width="400" height="99" as="geometry" />
        </mxCell>
        <mxCell id="6mvIVdEZMa_-6Su6zqdp-5" value="" style="group;fillColor=none;spacingLeft=0;" vertex="1" connectable="0" parent="1">
          <mxGeometry x="210" y="601" width="120" height="30" as="geometry" />
        </mxCell>
        <mxCell id="6mvIVdEZMa_-6Su6zqdp-6" value="Send Msg" style="rounded=0;whiteSpace=wrap;html=1;shadow=1;strokeColor=#b85450;fillColor=#f8cecc;strokeWidth=2;fontStyle=1;fontFamily=Helvetica;spacingLeft=8;fontColor=#c00000;" vertex="1" parent="6mvIVdEZMa_-6Su6zqdp-5">
          <mxGeometry width="110" height="30" as="geometry" />
        </mxCell>
        <mxCell id="6mvIVdEZMa_-6Su6zqdp-7" value="" style="html=1;aspect=fixed;strokeColor=none;shadow=0;align=center;verticalAlign=top;fillColor=#c00000;shape=mxgraph.gcp2.gear;dashed=1;fontFamily=Helvetica;fontSize=9;" vertex="1" parent="6mvIVdEZMa_-6Su6zqdp-5">
          <mxGeometry x="3" y="5" width="20" height="20" as="geometry" />
        </mxCell>
        <mxCell id="6mvIVdEZMa_-6Su6zqdp-8" value="US" style="text;html=1;align=right;verticalAlign=middle;resizable=0;points=[];autosize=1;spacingRight=2;fontSize=9;fontFamily=Helvetica;fontColor=#c00000;" vertex="1" parent="6mvIVdEZMa_-6Su6zqdp-5">
          <mxGeometry x="77" width="30" height="20" as="geometry" />
        </mxCell>
        <mxCell id="6mvIVdEZMa_-6Su6zqdp-9" value="" style="group;fillColor=none;fontColor=#000000;" vertex="1" connectable="0" parent="1">
          <mxGeometry x="350" y="600.75" width="126.25" height="30.25" as="geometry" />
        </mxCell>
        <mxCell id="6mvIVdEZMa_-6Su6zqdp-10" value="Messages" style="strokeWidth=2;html=1;shape=mxgraph.flowchart.stored_data;whiteSpace=wrap;shadow=1;fillColor=#f8cecc;fontFamily=Helvetica;fontSize=12;align=center;strokeColor=#b85450;fontStyle=1;fontColor=#c00000;" vertex="1" parent="6mvIVdEZMa_-6Su6zqdp-9">
          <mxGeometry y="0.25" width="90" height="30" as="geometry" />
        </mxCell>
        <mxCell id="6mvIVdEZMa_-6Su6zqdp-11" value="" style="ellipse;whiteSpace=wrap;html=1;shadow=0;strokeColor=#b85450;strokeWidth=2;fillColor=#f8cecc;fontFamily=Helvetica;fontSize=9;align=right;rotation=90;" vertex="1" parent="6mvIVdEZMa_-6Su6zqdp-9">
          <mxGeometry x="75.75" y="7.5" width="30" height="15" as="geometry" />
        </mxCell>
        <mxCell id="6mvIVdEZMa_-6Su6zqdp-12" value="&lt;font style=&quot;font-size: 9px;&quot;&gt;Q&lt;/font&gt;" style="text;html=1;align=center;verticalAlign=middle;resizable=0;points=[];autosize=1;fontSize=12;fontFamily=Helvetica;fontColor=#c00000;fontStyle=1" vertex="1" parent="6mvIVdEZMa_-6Su6zqdp-9">
          <mxGeometry x="-5" y="0.25" width="30" height="30" as="geometry" />
        </mxCell>
        <mxCell id="6mvIVdEZMa_-6Su6zqdp-13" value="" style="group;fillColor=none;" vertex="1" connectable="0" parent="1">
          <mxGeometry x="210" y="649.25" width="120" height="30" as="geometry" />
        </mxCell>
        <mxCell id="6mvIVdEZMa_-6Su6zqdp-14" value="Enrichment" style="rounded=0;whiteSpace=wrap;html=1;shadow=1;strokeColor=#b85450;fillColor=#f8cecc;strokeWidth=2;fontStyle=1;fontFamily=Helvetica;spacingLeft=8;fontColor=#c00000;" vertex="1" parent="6mvIVdEZMa_-6Su6zqdp-13">
          <mxGeometry width="110" height="30" as="geometry" />
        </mxCell>
        <mxCell id="6mvIVdEZMa_-6Su6zqdp-15" value="" style="html=1;aspect=fixed;strokeColor=none;shadow=0;align=center;verticalAlign=top;fillColor=#c00000;shape=mxgraph.gcp2.gear;dashed=1;fontFamily=Helvetica;fontSize=9;" vertex="1" parent="6mvIVdEZMa_-6Su6zqdp-13">
          <mxGeometry x="3" y="5" width="20" height="20" as="geometry" />
        </mxCell>
        <mxCell id="6mvIVdEZMa_-6Su6zqdp-16" value="US" style="text;html=1;align=right;verticalAlign=middle;resizable=0;points=[];autosize=1;spacingRight=2;fontSize=9;fontFamily=Helvetica;fontColor=#c00000;" vertex="1" parent="6mvIVdEZMa_-6Su6zqdp-13">
          <mxGeometry x="80" width="30" height="20" as="geometry" />
        </mxCell>
        <mxCell id="6mvIVdEZMa_-6Su6zqdp-17" value="" style="group;fillColor=none;fontColor=#000000;" vertex="1" connectable="0" parent="1">
          <mxGeometry x="350" y="649" width="126.25" height="30.25" as="geometry" />
        </mxCell>
        <mxCell id="6mvIVdEZMa_-6Su6zqdp-18" value="Delivery" style="strokeWidth=2;html=1;shape=mxgraph.flowchart.stored_data;whiteSpace=wrap;shadow=1;fillColor=#f8cecc;fontFamily=Helvetica;fontSize=12;align=center;strokeColor=#b85450;fontStyle=1;fontColor=#c00000;" vertex="1" parent="6mvIVdEZMa_-6Su6zqdp-17">
          <mxGeometry y="0.25" width="90" height="30" as="geometry" />
        </mxCell>
        <mxCell id="6mvIVdEZMa_-6Su6zqdp-19" value="" style="ellipse;whiteSpace=wrap;html=1;shadow=0;strokeColor=#b85450;strokeWidth=2;fillColor=#f8cecc;fontFamily=Helvetica;fontSize=9;align=right;rotation=90;" vertex="1" parent="6mvIVdEZMa_-6Su6zqdp-17">
          <mxGeometry x="75.75" y="7.5" width="30" height="15" as="geometry" />
        </mxCell>
        <mxCell id="6mvIVdEZMa_-6Su6zqdp-20" value="Q" style="text;html=1;align=center;verticalAlign=middle;resizable=0;points=[];autosize=1;fontSize=9;fontFamily=Helvetica;fontColor=#c00000;fontStyle=1" vertex="1" parent="6mvIVdEZMa_-6Su6zqdp-17">
          <mxGeometry x="-5" y="5.25" width="30" height="20" as="geometry" />
        </mxCell>
        <mxCell id="6mvIVdEZMa_-6Su6zqdp-21" value="" style="group;fillColor=none;" vertex="1" connectable="0" parent="1">
          <mxGeometry x="470" y="649.25" width="120" height="30" as="geometry" />
        </mxCell>
        <mxCell id="6mvIVdEZMa_-6Su6zqdp-22" value="Delivery" style="rounded=0;whiteSpace=wrap;html=1;shadow=1;strokeColor=#b85450;fillColor=#f8cecc;strokeWidth=2;fontStyle=1;fontFamily=Helvetica;spacingLeft=8;fontColor=#c00000;" vertex="1" parent="6mvIVdEZMa_-6Su6zqdp-21">
          <mxGeometry width="110" height="30" as="geometry" />
        </mxCell>
        <mxCell id="6mvIVdEZMa_-6Su6zqdp-23" value="" style="html=1;aspect=fixed;strokeColor=none;shadow=0;align=center;verticalAlign=top;fillColor=#c00000;shape=mxgraph.gcp2.gear;dashed=1;fontFamily=Helvetica;fontSize=9;" vertex="1" parent="6mvIVdEZMa_-6Su6zqdp-21">
          <mxGeometry x="3" y="5" width="20" height="20" as="geometry" />
        </mxCell>
        <mxCell id="6mvIVdEZMa_-6Su6zqdp-24" value="US" style="text;html=1;align=right;verticalAlign=middle;resizable=0;points=[];autosize=1;spacingRight=2;fontSize=9;fontFamily=Helvetica;fontColor=#c00000;" vertex="1" parent="6mvIVdEZMa_-6Su6zqdp-21">
          <mxGeometry x="80" width="30" height="20" as="geometry" />
        </mxCell>
        <mxCell id="6mvIVdEZMa_-6Su6zqdp-25" value="" style="group;fillColor=#ffffff;" vertex="1" connectable="0" parent="1">
          <mxGeometry x="40.31000000000001" y="524" width="115" height="30" as="geometry" />
        </mxCell>
        <mxCell id="6mvIVdEZMa_-6Su6zqdp-26" value="" style="group" vertex="1" connectable="0" parent="6mvIVdEZMa_-6Su6zqdp-25">
          <mxGeometry width="115.00000000000001" height="30" as="geometry" />
        </mxCell>
        <mxCell id="6mvIVdEZMa_-6Su6zqdp-27" value="Trigger" style="rounded=0;whiteSpace=wrap;html=1;shadow=1;strokeColor=#000000;fillColor=#D9D9D9;strokeWidth=2;fontStyle=1;fontFamily=Helvetica;fontColor=#000000;" vertex="1" parent="6mvIVdEZMa_-6Su6zqdp-26">
          <mxGeometry width="110" height="30" as="geometry" />
        </mxCell>
        <mxCell id="6mvIVdEZMa_-6Su6zqdp-28" value="C" style="text;html=1;align=right;verticalAlign=middle;resizable=0;points=[];autosize=1;spacingRight=2;fontSize=9;fontFamily=Helvetica;fontColor=#000000;" vertex="1" parent="6mvIVdEZMa_-6Su6zqdp-26">
          <mxGeometry x="84.83333333333334" width="20" height="20" as="geometry" />
        </mxCell>
        <mxCell id="6mvIVdEZMa_-6Su6zqdp-29" value="" style="pointerEvents=1;shadow=0;dashed=0;html=1;strokeColor=none;fillColor=#000000;aspect=fixed;labelPosition=center;verticalLabelPosition=bottom;verticalAlign=top;align=center;outlineConnect=0;shape=mxgraph.vvd.cpu;fontFamily=Helvetica;fontSize=9;" vertex="1" parent="6mvIVdEZMa_-6Su6zqdp-26">
          <mxGeometry x="3.833333333333334" y="2.9000000000000004" width="10.150000000000002" height="10.150000000000002" as="geometry" />
        </mxCell>
        <mxCell id="6mvIVdEZMa_-6Su6zqdp-30" value="" style="endArrow=classic;html=1;strokeColor=#0071c1;fontFamily=Helvetica;fontSize=12;fontColor=#FFFFFF;strokeWidth=2;exitX=0.5;exitY=0;exitDx=0;exitDy=0;entryX=0.5;entryY=1;entryDx=0;entryDy=0;" edge="1" parent="1" source="6mvIVdEZMa_-6Su6zqdp-27" target="6mvIVdEZMa_-6Su6zqdp-51">
          <mxGeometry width="50" height="50" relative="1" as="geometry">
            <mxPoint x="110.15" y="494.75" as="sourcePoint" />
            <mxPoint x="737.15" y="446.59000000000015" as="targetPoint" />
          </mxGeometry>
        </mxCell>
        <mxCell id="6mvIVdEZMa_-6Su6zqdp-31" value="" style="endArrow=classic;html=1;strokeColor=#b85450;fontFamily=Helvetica;fontSize=12;fontColor=#FFFFFF;strokeWidth=2;exitX=1;exitY=0.5;exitDx=0;exitDy=0;entryX=0;entryY=0.5;entryDx=0;entryDy=0;entryPerimeter=0;fillColor=#f8cecc;" edge="1" parent="1" source="6mvIVdEZMa_-6Su6zqdp-6" target="6mvIVdEZMa_-6Su6zqdp-10">
          <mxGeometry width="50" height="50" relative="1" as="geometry">
            <mxPoint x="118" y="626" as="sourcePoint" />
            <mxPoint x="220" y="626" as="targetPoint" />
          </mxGeometry>
        </mxCell>
        <mxCell id="6mvIVdEZMa_-6Su6zqdp-32" value="" style="endArrow=classic;html=1;strokeColor=#b85450;fontFamily=Helvetica;fontSize=12;fontColor=#FFFFFF;strokeWidth=2;exitX=1;exitY=0.5;exitDx=0;exitDy=0;entryX=0;entryY=0.5;entryDx=0;entryDy=0;entryPerimeter=0;fillColor=#f8cecc;" edge="1" parent="1" source="6mvIVdEZMa_-6Su6zqdp-14" target="6mvIVdEZMa_-6Su6zqdp-18">
          <mxGeometry width="50" height="50" relative="1" as="geometry">
            <mxPoint x="330" y="617.25" as="sourcePoint" />
            <mxPoint x="360" y="617.25" as="targetPoint" />
          </mxGeometry>
        </mxCell>
        <mxCell id="6mvIVdEZMa_-6Su6zqdp-33" value="" style="endArrow=classic;html=1;strokeColor=#b85450;fontFamily=Helvetica;fontSize=12;fontColor=#FFFFFF;strokeWidth=2;exitX=0.5;exitY=0;exitDx=0;exitDy=0;entryX=0;entryY=0.5;entryDx=0;entryDy=0;fillColor=#f8cecc;" edge="1" parent="1" source="6mvIVdEZMa_-6Su6zqdp-19" target="6mvIVdEZMa_-6Su6zqdp-22">
          <mxGeometry width="50" height="50" relative="1" as="geometry">
            <mxPoint x="330" y="674.25" as="sourcePoint" />
            <mxPoint x="360" y="674.25" as="targetPoint" />
          </mxGeometry>
        </mxCell>
        <mxCell id="6mvIVdEZMa_-6Su6zqdp-34" value="" style="group;fontColor=#548235;" vertex="1" connectable="0" parent="1">
          <mxGeometry x="200" y="416.25" width="120" height="30" as="geometry" />
        </mxCell>
        <mxCell id="6mvIVdEZMa_-6Su6zqdp-35" value="Send Event" style="rounded=0;whiteSpace=wrap;html=1;shadow=1;strokeColor=#548235;fillColor=#e2f0d9;strokeWidth=2;fontStyle=1;fontFamily=Helvetica;spacingLeft=8;fontColor=#548235;" vertex="1" parent="6mvIVdEZMa_-6Su6zqdp-34">
          <mxGeometry width="110" height="30" as="geometry" />
        </mxCell>
        <mxCell id="6mvIVdEZMa_-6Su6zqdp-36" value="" style="html=1;aspect=fixed;strokeColor=none;shadow=0;align=center;verticalAlign=top;fillColor=#548235;shape=mxgraph.gcp2.gear;dashed=1;fontFamily=Helvetica;fontSize=9;" vertex="1" parent="6mvIVdEZMa_-6Su6zqdp-34">
          <mxGeometry x="3" y="5" width="20" height="20" as="geometry" />
        </mxCell>
        <mxCell id="6mvIVdEZMa_-6Su6zqdp-37" value="US" style="text;html=1;align=right;verticalAlign=middle;resizable=0;points=[];autosize=1;spacingRight=2;fontSize=9;fontFamily=Helvetica;fontColor=#548235;" vertex="1" parent="6mvIVdEZMa_-6Su6zqdp-34">
          <mxGeometry x="77" y="-2" width="30" height="20" as="geometry" />
        </mxCell>
        <mxCell id="6mvIVdEZMa_-6Su6zqdp-38" value="" style="editableCssRules=.*;html=1;shape=image;verticalLabelPosition=bottom;labelBackgroundColor=#ffffff;verticalAlign=top;aspect=fixed;imageAspect=0;image=data:image/svg+xml,PHN2ZyB4bWxucz0iaHR0cDovL3d3dy53My5vcmcvMjAwMC9zdmciIHhtbG5zOnY9Imh0dHBzOi8vdmVjdGEuaW8vbmFubyIgd2lkdGg9IjM2NS40NjQ5OTY3NzA0MjQ5MyIgaGVpZ2h0PSIzNzkuMjIyOTk0NDYzNTc3OTUiIHZpZXdCb3g9IjAgMCA5Ni42OTU5OTkxNDU1MDc4MSAxMDAuMzM1OTk4NTM1MTU2MjUiPiYjeGE7PHN0eWxlIHR5cGU9InRleHQvY3NzIj4mI3hhOwkuc3Qwe2ZpbGw6IzQyODVmNDt9JiN4YTsJLnN0MXtmaWxsOiNhZWNiZmE7fSYjeGE7PC9zdHlsZT4mI3hhOwk8cGF0aCBjbGFzcz0ic3QwIiBkPSJNMjkuNzk0IDEwMC4zMzZMNDYuOTIgNTAuMTY4aDQ5Ljc3NnpNMCA5OS42NzFsMTIuOTc2LTQ5LjUwMkgyOS4yMkwxNi44OTcgOTIuMDU0eiIvPiYjeGE7CTxwYXRoIGNsYXNzPSJzdDEiIGQ9Ik0yOS43OTQgMEw0Ni45MiA1MC4xNjhoNDkuNzc2ek0wIC42NjZsMTIuOTc2IDQ5LjUwMkgyOS4yMkwxNi44OTcgOC4yODN6Ii8+JiN4YTs8L3N2Zz4=;" vertex="1" parent="6mvIVdEZMa_-6Su6zqdp-34">
          <mxGeometry x="93" y="14" width="14" height="14" as="geometry" />
        </mxCell>
        <mxCell id="6mvIVdEZMa_-6Su6zqdp-39" value="" style="endArrow=classic;html=1;strokeColor=#000000;fontFamily=Helvetica;fontSize=12;fontColor=#FFFFFF;strokeWidth=2;entryX=0;entryY=0.5;entryDx=0;entryDy=0;entryPerimeter=0;exitX=1;exitY=0.5;exitDx=0;exitDy=0;edgeStyle=elbowEdgeStyle;" edge="1" parent="1" source="6mvIVdEZMa_-6Su6zqdp-35" target="6mvIVdEZMa_-6Su6zqdp-67">
          <mxGeometry width="50" height="50" relative="1" as="geometry">
            <mxPoint x="320" y="456" as="sourcePoint" />
            <mxPoint x="275" y="528" as="targetPoint" />
            <Array as="points">
              <mxPoint x="330" y="500" />
              <mxPoint x="310" y="490" />
            </Array>
          </mxGeometry>
        </mxCell>
        <mxCell id="6mvIVdEZMa_-6Su6zqdp-40" value="Acton" style="ellipse;shape=cloud;whiteSpace=wrap;html=1;strokeWidth=2;" vertex="1" parent="1">
          <mxGeometry x="610" y="415" width="70" height="40" as="geometry" />
        </mxCell>
        <mxCell id="6mvIVdEZMa_-6Su6zqdp-41" value="SMTP" style="ellipse;shape=cloud;whiteSpace=wrap;html=1;strokeWidth=2;" vertex="1" parent="1">
          <mxGeometry x="610" y="455.25" width="70" height="40" as="geometry" />
        </mxCell>
        <mxCell id="6mvIVdEZMa_-6Su6zqdp-42" value="Epsilon" style="ellipse;shape=cloud;whiteSpace=wrap;html=1;strokeWidth=2;" vertex="1" parent="1">
          <mxGeometry x="610" y="495.75" width="70" height="40" as="geometry" />
        </mxCell>
        <mxCell id="6mvIVdEZMa_-6Su6zqdp-43" value="Kaleyra" style="ellipse;shape=cloud;whiteSpace=wrap;html=1;strokeWidth=2;fillColor=#e2f0d9;strokeColor=#548235;fontColor=#548235;" vertex="1" parent="1">
          <mxGeometry x="610" y="535" width="70" height="40" as="geometry" />
        </mxCell>
        <mxCell id="6mvIVdEZMa_-6Su6zqdp-44" value="" style="endArrow=classic;html=1;strokeColor=#000000;fontFamily=Helvetica;fontSize=12;fontColor=#FFFFFF;strokeWidth=2;exitX=1;exitY=0.5;exitDx=0;exitDy=0;entryX=0.07;entryY=0.4;entryDx=0;entryDy=0;entryPerimeter=0;" edge="1" parent="1" source="6mvIVdEZMa_-6Su6zqdp-75" target="6mvIVdEZMa_-6Su6zqdp-43">
          <mxGeometry width="50" height="50" relative="1" as="geometry">
            <mxPoint x="458" y="533" as="sourcePoint" />
            <mxPoint x="480" y="533" as="targetPoint" />
          </mxGeometry>
        </mxCell>
        <mxCell id="6mvIVdEZMa_-6Su6zqdp-45" value="" style="endArrow=classic;html=1;strokeColor=#b85450;fontFamily=Helvetica;fontSize=12;fontColor=#FFFFFF;strokeWidth=2;exitX=1;exitY=0.5;exitDx=0;exitDy=0;entryX=0.96;entryY=0.7;entryDx=0;entryDy=0;entryPerimeter=0;fillColor=#f8cecc;edgeStyle=elbowEdgeStyle;" edge="1" parent="1" source="6mvIVdEZMa_-6Su6zqdp-22" target="6mvIVdEZMa_-6Su6zqdp-40">
          <mxGeometry width="50" height="50" relative="1" as="geometry">
            <mxPoint x="468" y="537" as="sourcePoint" />
            <mxPoint x="490" y="537" as="targetPoint" />
            <Array as="points">
              <mxPoint x="700" y="550" />
            </Array>
          </mxGeometry>
        </mxCell>
        <mxCell id="6mvIVdEZMa_-6Su6zqdp-46" value="" style="endArrow=classic;html=1;strokeColor=#b85450;fontFamily=Helvetica;fontSize=12;fontColor=#FFFFFF;strokeWidth=2;exitX=1;exitY=0.5;exitDx=0;exitDy=0;entryX=0.96;entryY=0.7;entryDx=0;entryDy=0;entryPerimeter=0;fillColor=#f8cecc;edgeStyle=elbowEdgeStyle;" edge="1" parent="1" source="6mvIVdEZMa_-6Su6zqdp-22" target="6mvIVdEZMa_-6Su6zqdp-41">
          <mxGeometry width="50" height="50" relative="1" as="geometry">
            <mxPoint x="590" y="347" as="sourcePoint" />
            <mxPoint x="635" y="323" as="targetPoint" />
            <Array as="points">
              <mxPoint x="700" y="570" />
            </Array>
          </mxGeometry>
        </mxCell>
        <mxCell id="6mvIVdEZMa_-6Su6zqdp-47" value="" style="endArrow=classic;html=1;strokeColor=#b85450;fontFamily=Helvetica;fontSize=12;fontColor=#FFFFFF;strokeWidth=2;exitX=1;exitY=0.5;exitDx=0;exitDy=0;entryX=0.96;entryY=0.7;entryDx=0;entryDy=0;entryPerimeter=0;fillColor=#f8cecc;edgeStyle=elbowEdgeStyle;" edge="1" parent="1" source="6mvIVdEZMa_-6Su6zqdp-22" target="6mvIVdEZMa_-6Su6zqdp-42">
          <mxGeometry width="50" height="50" relative="1" as="geometry">
            <mxPoint x="600" y="357" as="sourcePoint" />
            <mxPoint x="645" y="333" as="targetPoint" />
            <Array as="points">
              <mxPoint x="700" y="590" />
            </Array>
          </mxGeometry>
        </mxCell>
        <mxCell id="6mvIVdEZMa_-6Su6zqdp-48" value="" style="endArrow=classic;html=1;strokeColor=#000000;fontFamily=Helvetica;fontSize=12;fontColor=#FFFFFF;strokeWidth=2;exitX=1;exitY=0.5;exitDx=0;exitDy=0;entryX=0.07;entryY=0.4;entryDx=0;entryDy=0;entryPerimeter=0;" edge="1" parent="1" source="6mvIVdEZMa_-6Su6zqdp-71" target="6mvIVdEZMa_-6Su6zqdp-42">
          <mxGeometry width="50" height="50" relative="1" as="geometry">
            <mxPoint x="610" y="373" as="sourcePoint" />
            <mxPoint x="655" y="349" as="targetPoint" />
          </mxGeometry>
        </mxCell>
        <mxCell id="6mvIVdEZMa_-6Su6zqdp-49" value="" style="endArrow=classic;html=1;strokeColor=#000000;fontFamily=Helvetica;fontSize=12;fontColor=#FFFFFF;strokeWidth=2;exitX=1;exitY=0.5;exitDx=0;exitDy=0;entryX=0;entryY=0.5;entryDx=0;entryDy=0;entryPerimeter=0;edgeStyle=elbowEdgeStyle;" edge="1" parent="1" source="6mvIVdEZMa_-6Su6zqdp-35" target="6mvIVdEZMa_-6Su6zqdp-62">
          <mxGeometry width="50" height="50" relative="1" as="geometry">
            <mxPoint x="330" y="453" as="sourcePoint" />
            <mxPoint x="360" y="543" as="targetPoint" />
            <Array as="points">
              <mxPoint x="330" y="480" />
              <mxPoint x="310" y="470" />
            </Array>
          </mxGeometry>
        </mxCell>
        <mxCell id="6mvIVdEZMa_-6Su6zqdp-50" value="" style="group;fillColor=#ffffff;" vertex="1" connectable="0" parent="1">
          <mxGeometry x="40.31" y="474.25" width="112.5" height="30" as="geometry" />
        </mxCell>
        <mxCell id="6mvIVdEZMa_-6Su6zqdp-51" value="Send Msg&lt;br&gt;+ Plugin" style="rounded=0;whiteSpace=wrap;html=1;shadow=1;strokeColor=#0070C0;fillColor=#DAE3F3;strokeWidth=2;fontStyle=1;fontFamily=Helvetica;fontColor=#0070C0;" vertex="1" parent="6mvIVdEZMa_-6Su6zqdp-50">
          <mxGeometry width="110" height="30" as="geometry" />
        </mxCell>
        <mxCell id="6mvIVdEZMa_-6Su6zqdp-52" value="" style="html=1;aspect=fixed;strokeColor=none;shadow=0;align=center;verticalAlign=top;fillColor=#0070C0;shape=mxgraph.gcp2.gear;dashed=1;fontFamily=Helvetica;fontSize=9;" vertex="1" parent="6mvIVdEZMa_-6Su6zqdp-50">
          <mxGeometry x="2.8125" y="5" width="18.75" height="18.75" as="geometry" />
        </mxCell>
        <mxCell id="6mvIVdEZMa_-6Su6zqdp-53" value="US" style="text;html=1;align=right;verticalAlign=middle;resizable=0;points=[];autosize=1;spacingRight=2;fontSize=9;fontFamily=Helvetica;fontColor=#0070C0;" vertex="1" parent="6mvIVdEZMa_-6Su6zqdp-50">
          <mxGeometry x="78.125" width="30" height="20" as="geometry" />
        </mxCell>
        <mxCell id="6mvIVdEZMa_-6Su6zqdp-54" value="Updated Clients" style="rounded=1;whiteSpace=wrap;html=1;dashed=1;align=right;verticalAlign=top;spacingRight=3;arcSize=6;" vertex="1" parent="1">
          <mxGeometry x="30" y="580" width="140" height="110" as="geometry" />
        </mxCell>
        <mxCell id="6mvIVdEZMa_-6Su6zqdp-55" value="" style="group;fillColor=#ffffff;" vertex="1" connectable="0" parent="1">
          <mxGeometry x="40" y="650" width="120" height="30" as="geometry" />
        </mxCell>
        <mxCell id="6mvIVdEZMa_-6Su6zqdp-56" value="Enrichment&lt;br&gt;Plugin" style="rounded=0;whiteSpace=wrap;html=1;shadow=1;strokeColor=#b85450;fillColor=#f8cecc;strokeWidth=2;fontStyle=1;fontFamily=Helvetica;spacingLeft=8;fontColor=#c00000;" vertex="1" parent="6mvIVdEZMa_-6Su6zqdp-55">
          <mxGeometry width="110" height="30" as="geometry" />
        </mxCell>
        <mxCell id="6mvIVdEZMa_-6Su6zqdp-57" value="" style="html=1;aspect=fixed;strokeColor=none;shadow=0;align=center;verticalAlign=top;fillColor=#c00000;shape=mxgraph.gcp2.gear;dashed=1;fontFamily=Helvetica;fontSize=9;" vertex="1" parent="6mvIVdEZMa_-6Su6zqdp-55">
          <mxGeometry x="3" y="5" width="20" height="20" as="geometry" />
        </mxCell>
        <mxCell id="6mvIVdEZMa_-6Su6zqdp-58" value="US" style="text;html=1;align=right;verticalAlign=middle;resizable=0;points=[];autosize=1;spacingRight=2;fontSize=9;fontFamily=Helvetica;fontColor=#c00000;" vertex="1" parent="6mvIVdEZMa_-6Su6zqdp-55">
          <mxGeometry x="80" width="30" height="20" as="geometry" />
        </mxCell>
        <mxCell id="6mvIVdEZMa_-6Su6zqdp-59" value="" style="endArrow=classic;html=1;strokeColor=#b85450;fontFamily=Helvetica;fontSize=12;fontColor=#FFFFFF;strokeWidth=2;exitX=1;exitY=0.75;exitDx=0;exitDy=0;entryX=0;entryY=0.75;entryDx=0;entryDy=0;fillColor=#f8cecc;" edge="1" parent="1" source="6mvIVdEZMa_-6Su6zqdp-105" target="6mvIVdEZMa_-6Su6zqdp-6">
          <mxGeometry width="50" height="50" relative="1" as="geometry">
            <mxPoint x="147.5" y="627" as="sourcePoint" />
            <mxPoint x="210" y="627" as="targetPoint" />
          </mxGeometry>
        </mxCell>
        <mxCell id="6mvIVdEZMa_-6Su6zqdp-60" value="" style="endArrow=classic;html=1;strokeColor=#b85450;fontFamily=Helvetica;fontSize=12;fontColor=#FFFFFF;strokeWidth=2;exitX=0;exitY=0.5;exitDx=0;exitDy=0;entryX=1;entryY=0.5;entryDx=0;entryDy=0;fillColor=#f8cecc;" edge="1" parent="1" source="6mvIVdEZMa_-6Su6zqdp-14" target="6mvIVdEZMa_-6Su6zqdp-56">
          <mxGeometry width="50" height="50" relative="1" as="geometry">
            <mxPoint x="158" y="628.25" as="sourcePoint" />
            <mxPoint x="220" y="628.25" as="targetPoint" />
          </mxGeometry>
        </mxCell>
        <mxCell id="6mvIVdEZMa_-6Su6zqdp-61" value="" style="group" vertex="1" connectable="0" parent="1">
          <mxGeometry x="350" y="496.62" width="126.25" height="30.25" as="geometry" />
        </mxCell>
        <mxCell id="6mvIVdEZMa_-6Su6zqdp-62" value="Epsilon&lt;br&gt;Email" style="strokeWidth=2;html=1;shape=mxgraph.flowchart.stored_data;whiteSpace=wrap;shadow=1;fontFamily=Helvetica;fontSize=12;align=center;fontStyle=1;fillColor=#e2f0d9;strokeColor=#548235;fontColor=#548235;" vertex="1" parent="6mvIVdEZMa_-6Su6zqdp-61">
          <mxGeometry y="0.25" width="90" height="30" as="geometry" />
        </mxCell>
        <mxCell id="6mvIVdEZMa_-6Su6zqdp-63" value="" style="ellipse;whiteSpace=wrap;html=1;shadow=0;strokeWidth=2;fontFamily=Helvetica;fontSize=9;align=right;rotation=90;fillColor=#e2f0d9;strokeColor=#548235;" vertex="1" parent="6mvIVdEZMa_-6Su6zqdp-61">
          <mxGeometry x="75.75" y="7.5" width="30" height="15" as="geometry" />
        </mxCell>
        <mxCell id="6mvIVdEZMa_-6Su6zqdp-64" value="T" style="text;html=1;align=center;verticalAlign=middle;resizable=0;points=[];autosize=1;fontSize=12;fontFamily=Helvetica;fontStyle=1;fontColor=#548235;" vertex="1" parent="6mvIVdEZMa_-6Su6zqdp-61">
          <mxGeometry x="-5" y="0.25" width="30" height="30" as="geometry" />
        </mxCell>
        <mxCell id="6mvIVdEZMa_-6Su6zqdp-65" value="" style="editableCssRules=.*;html=1;shape=image;verticalLabelPosition=bottom;labelBackgroundColor=#ffffff;verticalAlign=top;aspect=fixed;imageAspect=0;image=data:image/svg+xml,PHN2ZyB4bWxucz0iaHR0cDovL3d3dy53My5vcmcvMjAwMC9zdmciIHhtbG5zOnY9Imh0dHBzOi8vdmVjdGEuaW8vbmFubyIgd2lkdGg9IjE4LjMxOTk5OTY5NDgyNDIyIiBoZWlnaHQ9IjIwLjAwMDAwMTkwNzM0ODYzMyIgdmlld0JveD0iMCAwIDE4LjMxOTk5OTY5NDgyNDIyIDIwLjAwMDAwMTkwNzM0ODYzMyI+JiN4YTsJPHN0eWxlIHR5cGU9InRleHQvY3NzIj4mI3hhOwkuc3Qwe2ZpbGw6IzY2OWRmNjt9JiN4YTsJLnN0MXtmaWxsOiM0Mjg1ZjQ7fSYjeGE7CS5zdDJ7ZmlsbDojYWVjYmZhO30mI3hhOwk8L3N0eWxlPiYjeGE7CTxkZWZzPiYjeGE7CQk8ZmlsdGVyIGlkPSJBIiB4PSI0LjY0IiB5PSI0LjE5IiB3aWR0aD0iMTQuNzMiIGhlaWdodD0iMTIuNzYiIGZpbHRlclVuaXRzPSJ1c2VyU3BhY2VPblVzZSIgY29sb3ItaW50ZXJwb2xhdGlvbi1maWx0ZXJzPSJzUkdCIj4mI3hhOwkJCTxmZUZsb29kIGZsb29kLWNvbG9yPSIjZmZmIi8+JiN4YTsJCQk8ZmVCbGVuZCBpbj0iU291cmNlR3JhcGhpYyIvPiYjeGE7CQk8L2ZpbHRlcj4mI3hhOwkJPG1hc2sgaWQ9IkIiIHg9IjQuNjQiIHk9IjQuMTkiIHdpZHRoPSIxNC43MyIgaGVpZ2h0PSIxMi43NiIgbWFza1VuaXRzPSJ1c2VyU3BhY2VPblVzZSI+JiN4YTsJCQk8Y2lyY2xlIGN4PSIxMiIgY3k9IjEyLjIzIiByPSIzLjU4IiBmaWx0ZXI9InVybCgjQSkiLz4mI3hhOwkJPC9tYXNrPiYjeGE7CTwvZGVmcz4mI3hhOwk8ZyBjbGFzcz0ic3QwIj4mI3hhOwkJPGNpcmNsZSBjeD0iMTYuMTMiIGN5PSI2LjIxIiByPSIxLjcyIi8+JiN4YTsJCTxjaXJjbGUgY3g9IjIuMTkiIGN5PSI2LjIxIiByPSIxLjcyIi8+JiN4YTsJCTxjaXJjbGUgY3g9IjkuMTYiIGN5PSIxOC4yOCIgcj0iMS43MiIvPiYjeGE7CTwvZz4mI3hhOwk8ZyBtYXNrPSJ1cmwoI0IpIiB0cmFuc2Zvcm09InRyYW5zbGF0ZSgtMi44NCAtMikiPiYjeGE7CQk8cGF0aCB0cmFuc2Zvcm09Im1hdHJpeCguNSAtLjg3IC44NyAuNSAtNC41OSAyMC41MykiIGQ9Ik0xNC42OSAxMC4yMmgxLjU5djguMDRoLTEuNTl6IiBjbGFzcz0ic3QxIi8+JiN4YTsJCTxwYXRoIHRyYW5zZm9ybT0icm90YXRlKDMzMCA4LjUyMyAxNC4yNDQpIiBkPSJNNC40OSAxMy40NWg4LjA0djEuNTlINC40OXoiIGNsYXNzPSJzdDEiLz4mI3hhOwkJPHBhdGggZD0iTTExLjIgNC4xOWgxLjU5djguMDRIMTEuMnoiIGNsYXNzPSJzdDEiLz4mI3hhOwk8L2c+JiN4YTsJPGcgY2xhc3M9InN0MiI+JiN4YTsJCTxjaXJjbGUgY3g9IjkuMTYiIGN5PSIxMC4yMyIgcj0iMi43OCIvPiYjeGE7CQk8Y2lyY2xlIGN4PSIyLjE5IiBjeT0iMTQuMjUiIHI9IjIuMTkiLz4mI3hhOwkJPGNpcmNsZSBjeD0iMTYuMTMiIGN5PSIxNC4yNSIgcj0iMi4xOSIvPiYjeGE7CQk8Y2lyY2xlIGN4PSI5LjE2IiBjeT0iMi4xOSIgcj0iMi4xOSIvPiYjeGE7CTwvZz4mI3hhOzwvc3ZnPg==;" vertex="1" parent="6mvIVdEZMa_-6Su6zqdp-61">
          <mxGeometry x="84" y="7.5" width="13.5" height="15" as="geometry" />
        </mxCell>
        <mxCell id="6mvIVdEZMa_-6Su6zqdp-66" value="" style="group" vertex="1" connectable="0" parent="1">
          <mxGeometry x="350" y="536" width="126.25" height="30.25" as="geometry" />
        </mxCell>
        <mxCell id="6mvIVdEZMa_-6Su6zqdp-67" value="Kaleyra&lt;br&gt;SMS" style="strokeWidth=2;html=1;shape=mxgraph.flowchart.stored_data;whiteSpace=wrap;shadow=1;fontFamily=Helvetica;fontSize=12;align=center;fontStyle=1;fillColor=#e2f0d9;strokeColor=#548235;fontColor=#548235;" vertex="1" parent="6mvIVdEZMa_-6Su6zqdp-66">
          <mxGeometry y="0.25" width="90" height="30" as="geometry" />
        </mxCell>
        <mxCell id="6mvIVdEZMa_-6Su6zqdp-68" value="" style="ellipse;whiteSpace=wrap;html=1;shadow=0;strokeWidth=2;fontFamily=Helvetica;fontSize=9;align=right;rotation=90;fillColor=#e2f0d9;strokeColor=#548235;" vertex="1" parent="6mvIVdEZMa_-6Su6zqdp-66">
          <mxGeometry x="75.75" y="7.5" width="30" height="15" as="geometry" />
        </mxCell>
        <mxCell id="6mvIVdEZMa_-6Su6zqdp-69" value="T" style="text;html=1;align=center;verticalAlign=middle;resizable=0;points=[];autosize=1;fontSize=12;fontFamily=Helvetica;fontStyle=1;fontColor=#548235;" vertex="1" parent="6mvIVdEZMa_-6Su6zqdp-66">
          <mxGeometry x="-5" y="0.25" width="30" height="30" as="geometry" />
        </mxCell>
        <mxCell id="6mvIVdEZMa_-6Su6zqdp-70" value="" style="editableCssRules=.*;html=1;shape=image;verticalLabelPosition=bottom;labelBackgroundColor=#ffffff;verticalAlign=top;aspect=fixed;imageAspect=0;image=data:image/svg+xml,PHN2ZyB4bWxucz0iaHR0cDovL3d3dy53My5vcmcvMjAwMC9zdmciIHhtbG5zOnY9Imh0dHBzOi8vdmVjdGEuaW8vbmFubyIgd2lkdGg9IjE4LjMxOTk5OTY5NDgyNDIyIiBoZWlnaHQ9IjIwLjAwMDAwMTkwNzM0ODYzMyIgdmlld0JveD0iMCAwIDE4LjMxOTk5OTY5NDgyNDIyIDIwLjAwMDAwMTkwNzM0ODYzMyI+JiN4YTsJPHN0eWxlIHR5cGU9InRleHQvY3NzIj4mI3hhOwkuc3Qwe2ZpbGw6IzY2OWRmNjt9JiN4YTsJLnN0MXtmaWxsOiM0Mjg1ZjQ7fSYjeGE7CS5zdDJ7ZmlsbDojYWVjYmZhO30mI3hhOwk8L3N0eWxlPiYjeGE7CTxkZWZzPiYjeGE7CQk8ZmlsdGVyIGlkPSJBIiB4PSI0LjY0IiB5PSI0LjE5IiB3aWR0aD0iMTQuNzMiIGhlaWdodD0iMTIuNzYiIGZpbHRlclVuaXRzPSJ1c2VyU3BhY2VPblVzZSIgY29sb3ItaW50ZXJwb2xhdGlvbi1maWx0ZXJzPSJzUkdCIj4mI3hhOwkJCTxmZUZsb29kIGZsb29kLWNvbG9yPSIjZmZmIi8+JiN4YTsJCQk8ZmVCbGVuZCBpbj0iU291cmNlR3JhcGhpYyIvPiYjeGE7CQk8L2ZpbHRlcj4mI3hhOwkJPG1hc2sgaWQ9IkIiIHg9IjQuNjQiIHk9IjQuMTkiIHdpZHRoPSIxNC43MyIgaGVpZ2h0PSIxMi43NiIgbWFza1VuaXRzPSJ1c2VyU3BhY2VPblVzZSI+JiN4YTsJCQk8Y2lyY2xlIGN4PSIxMiIgY3k9IjEyLjIzIiByPSIzLjU4IiBmaWx0ZXI9InVybCgjQSkiLz4mI3hhOwkJPC9tYXNrPiYjeGE7CTwvZGVmcz4mI3hhOwk8ZyBjbGFzcz0ic3QwIj4mI3hhOwkJPGNpcmNsZSBjeD0iMTYuMTMiIGN5PSI2LjIxIiByPSIxLjcyIi8+JiN4YTsJCTxjaXJjbGUgY3g9IjIuMTkiIGN5PSI2LjIxIiByPSIxLjcyIi8+JiN4YTsJCTxjaXJjbGUgY3g9IjkuMTYiIGN5PSIxOC4yOCIgcj0iMS43MiIvPiYjeGE7CTwvZz4mI3hhOwk8ZyBtYXNrPSJ1cmwoI0IpIiB0cmFuc2Zvcm09InRyYW5zbGF0ZSgtMi44NCAtMikiPiYjeGE7CQk8cGF0aCB0cmFuc2Zvcm09Im1hdHJpeCguNSAtLjg3IC44NyAuNSAtNC41OSAyMC41MykiIGQ9Ik0xNC42OSAxMC4yMmgxLjU5djguMDRoLTEuNTl6IiBjbGFzcz0ic3QxIi8+JiN4YTsJCTxwYXRoIHRyYW5zZm9ybT0icm90YXRlKDMzMCA4LjUyMyAxNC4yNDQpIiBkPSJNNC40OSAxMy40NWg4LjA0djEuNTlINC40OXoiIGNsYXNzPSJzdDEiLz4mI3hhOwkJPHBhdGggZD0iTTExLjIgNC4xOWgxLjU5djguMDRIMTEuMnoiIGNsYXNzPSJzdDEiLz4mI3hhOwk8L2c+JiN4YTsJPGcgY2xhc3M9InN0MiI+JiN4YTsJCTxjaXJjbGUgY3g9IjkuMTYiIGN5PSIxMC4yMyIgcj0iMi43OCIvPiYjeGE7CQk8Y2lyY2xlIGN4PSIyLjE5IiBjeT0iMTQuMjUiIHI9IjIuMTkiLz4mI3hhOwkJPGNpcmNsZSBjeD0iMTYuMTMiIGN5PSIxNC4yNSIgcj0iMi4xOSIvPiYjeGE7CQk8Y2lyY2xlIGN4PSI5LjE2IiBjeT0iMi4xOSIgcj0iMi4xOSIvPiYjeGE7CTwvZz4mI3hhOzwvc3ZnPg==;" vertex="1" parent="6mvIVdEZMa_-6Su6zqdp-66">
          <mxGeometry x="84" y="7.5" width="13.5" height="15" as="geometry" />
        </mxCell>
        <mxCell id="6mvIVdEZMa_-6Su6zqdp-71" value="Epsilon&lt;br&gt;Delivery" style="rounded=0;whiteSpace=wrap;html=1;shadow=1;strokeWidth=2;fontStyle=1;fontFamily=Helvetica;spacingLeft=8;fillColor=#e2f0d9;strokeColor=#548235;fontColor=#548235;" vertex="1" parent="1">
          <mxGeometry x="470" y="496.75" width="110" height="30" as="geometry" />
        </mxCell>
        <mxCell id="6mvIVdEZMa_-6Su6zqdp-72" value="" style="html=1;aspect=fixed;strokeColor=none;shadow=0;align=center;verticalAlign=top;fillColor=#548235;shape=mxgraph.gcp2.gear;dashed=1;fontFamily=Helvetica;fontSize=9;" vertex="1" parent="1">
          <mxGeometry x="473" y="501.75" width="20" height="20" as="geometry" />
        </mxCell>
        <mxCell id="6mvIVdEZMa_-6Su6zqdp-73" value="US" style="text;html=1;align=right;verticalAlign=middle;resizable=0;points=[];autosize=1;spacingRight=2;fontSize=9;fontFamily=Helvetica;fontColor=#548235;" vertex="1" parent="1">
          <mxGeometry x="547" y="494.75" width="30" height="20" as="geometry" />
        </mxCell>
        <mxCell id="6mvIVdEZMa_-6Su6zqdp-74" value="" style="editableCssRules=.*;html=1;shape=image;verticalLabelPosition=bottom;labelBackgroundColor=#ffffff;verticalAlign=top;aspect=fixed;imageAspect=0;image=data:image/svg+xml,PHN2ZyB4bWxucz0iaHR0cDovL3d3dy53My5vcmcvMjAwMC9zdmciIHhtbG5zOnY9Imh0dHBzOi8vdmVjdGEuaW8vbmFubyIgd2lkdGg9IjM2NS40NjQ5OTY3NzA0MjQ5MyIgaGVpZ2h0PSIzNzkuMjIyOTk0NDYzNTc3OTUiIHZpZXdCb3g9IjAgMCA5Ni42OTU5OTkxNDU1MDc4MSAxMDAuMzM1OTk4NTM1MTU2MjUiPiYjeGE7PHN0eWxlIHR5cGU9InRleHQvY3NzIj4mI3hhOwkuc3Qwe2ZpbGw6IzQyODVmNDt9JiN4YTsJLnN0MXtmaWxsOiNhZWNiZmE7fSYjeGE7PC9zdHlsZT4mI3hhOwk8cGF0aCBjbGFzcz0ic3QwIiBkPSJNMjkuNzk0IDEwMC4zMzZMNDYuOTIgNTAuMTY4aDQ5Ljc3NnpNMCA5OS42NzFsMTIuOTc2LTQ5LjUwMkgyOS4yMkwxNi44OTcgOTIuMDU0eiIvPiYjeGE7CTxwYXRoIGNsYXNzPSJzdDEiIGQ9Ik0yOS43OTQgMEw0Ni45MiA1MC4xNjhoNDkuNzc2ek0wIC42NjZsMTIuOTc2IDQ5LjUwMkgyOS4yMkwxNi44OTcgOC4yODN6Ii8+JiN4YTs8L3N2Zz4=;" vertex="1" parent="1">
          <mxGeometry x="563" y="510.75" width="14" height="14" as="geometry" />
        </mxCell>
        <mxCell id="6mvIVdEZMa_-6Su6zqdp-75" value="Kaleyra&lt;br&gt;Delivery" style="rounded=0;whiteSpace=wrap;html=1;shadow=1;strokeWidth=2;fontStyle=1;fontFamily=Helvetica;spacingLeft=8;fillColor=#e2f0d9;strokeColor=#548235;fontColor=#548235;" vertex="1" parent="1">
          <mxGeometry x="470" y="536" width="110" height="30" as="geometry" />
        </mxCell>
        <mxCell id="6mvIVdEZMa_-6Su6zqdp-76" value="" style="html=1;aspect=fixed;strokeColor=none;shadow=0;align=center;verticalAlign=top;fillColor=#548235;shape=mxgraph.gcp2.gear;dashed=1;fontFamily=Helvetica;fontSize=9;" vertex="1" parent="1">
          <mxGeometry x="473" y="541" width="20" height="20" as="geometry" />
        </mxCell>
        <mxCell id="6mvIVdEZMa_-6Su6zqdp-77" value="US" style="text;html=1;align=right;verticalAlign=middle;resizable=0;points=[];autosize=1;spacingRight=2;fontSize=9;fontFamily=Helvetica;fontColor=#548235;" vertex="1" parent="1">
          <mxGeometry x="547" y="534" width="30" height="20" as="geometry" />
        </mxCell>
        <mxCell id="6mvIVdEZMa_-6Su6zqdp-78" value="" style="editableCssRules=.*;html=1;shape=image;verticalLabelPosition=bottom;labelBackgroundColor=#ffffff;verticalAlign=top;aspect=fixed;imageAspect=0;image=data:image/svg+xml,PHN2ZyB4bWxucz0iaHR0cDovL3d3dy53My5vcmcvMjAwMC9zdmciIHhtbG5zOnY9Imh0dHBzOi8vdmVjdGEuaW8vbmFubyIgd2lkdGg9IjM2NS40NjQ5OTY3NzA0MjQ5MyIgaGVpZ2h0PSIzNzkuMjIyOTk0NDYzNTc3OTUiIHZpZXdCb3g9IjAgMCA5Ni42OTU5OTkxNDU1MDc4MSAxMDAuMzM1OTk4NTM1MTU2MjUiPiYjeGE7PHN0eWxlIHR5cGU9InRleHQvY3NzIj4mI3hhOwkuc3Qwe2ZpbGw6IzQyODVmNDt9JiN4YTsJLnN0MXtmaWxsOiNhZWNiZmE7fSYjeGE7PC9zdHlsZT4mI3hhOwk8cGF0aCBjbGFzcz0ic3QwIiBkPSJNMjkuNzk0IDEwMC4zMzZMNDYuOTIgNTAuMTY4aDQ5Ljc3NnpNMCA5OS42NzFsMTIuOTc2LTQ5LjUwMkgyOS4yMkwxNi44OTcgOTIuMDU0eiIvPiYjeGE7CTxwYXRoIGNsYXNzPSJzdDEiIGQ9Ik0yOS43OTQgMEw0Ni45MiA1MC4xNjhoNDkuNzc2ek0wIC42NjZsMTIuOTc2IDQ5LjUwMkgyOS4yMkwxNi44OTcgOC4yODN6Ii8+JiN4YTs8L3N2Zz4=;" vertex="1" parent="1">
          <mxGeometry x="563" y="550" width="14" height="14" as="geometry" />
        </mxCell>
        <mxCell id="6mvIVdEZMa_-6Su6zqdp-79" value="" style="endArrow=classic;html=1;strokeColor=#000000;fontFamily=Helvetica;fontSize=12;fontColor=#FFFFFF;strokeWidth=2;exitX=0.5;exitY=0;exitDx=0;exitDy=0;entryX=0;entryY=0.5;entryDx=0;entryDy=0;" edge="1" parent="1" source="6mvIVdEZMa_-6Su6zqdp-63" target="6mvIVdEZMa_-6Su6zqdp-71">
          <mxGeometry width="50" height="50" relative="1" as="geometry">
            <mxPoint x="458" y="452.62" as="sourcePoint" />
            <mxPoint x="480" y="452.62" as="targetPoint" />
          </mxGeometry>
        </mxCell>
        <mxCell id="6mvIVdEZMa_-6Su6zqdp-80" value="" style="endArrow=classic;html=1;strokeColor=#000000;fontFamily=Helvetica;fontSize=12;fontColor=#FFFFFF;strokeWidth=2;exitX=0.5;exitY=0;exitDx=0;exitDy=0;entryX=0;entryY=0.5;entryDx=0;entryDy=0;" edge="1" parent="1" source="6mvIVdEZMa_-6Su6zqdp-68" target="6mvIVdEZMa_-6Su6zqdp-75">
          <mxGeometry width="50" height="50" relative="1" as="geometry">
            <mxPoint x="458" y="544.87" as="sourcePoint" />
            <mxPoint x="480" y="544.87" as="targetPoint" />
          </mxGeometry>
        </mxCell>
        <mxCell id="6mvIVdEZMa_-6Su6zqdp-81" value="" style="group" vertex="1" connectable="0" parent="1">
          <mxGeometry x="350" y="416" width="126.25" height="30.25" as="geometry" />
        </mxCell>
        <mxCell id="6mvIVdEZMa_-6Su6zqdp-82" value="Acton" style="strokeWidth=2;html=1;shape=mxgraph.flowchart.stored_data;whiteSpace=wrap;shadow=1;fillColor=#E2F0D9;fontFamily=Helvetica;fontSize=12;align=center;strokeColor=#548235;fontStyle=1;fontColor=#548235;" vertex="1" parent="6mvIVdEZMa_-6Su6zqdp-81">
          <mxGeometry y="0.25" width="90" height="30" as="geometry" />
        </mxCell>
        <mxCell id="6mvIVdEZMa_-6Su6zqdp-83" value="" style="ellipse;whiteSpace=wrap;html=1;shadow=0;strokeColor=#548235;strokeWidth=2;fillColor=#E2F0D9;fontFamily=Helvetica;fontSize=9;align=right;rotation=90;" vertex="1" parent="6mvIVdEZMa_-6Su6zqdp-81">
          <mxGeometry x="75.75" y="7.5" width="30" height="15" as="geometry" />
        </mxCell>
        <mxCell id="6mvIVdEZMa_-6Su6zqdp-84" value="T" style="text;html=1;align=center;verticalAlign=middle;resizable=0;points=[];autosize=1;fontSize=12;fontFamily=Helvetica;fontColor=#548235;fontStyle=1" vertex="1" parent="6mvIVdEZMa_-6Su6zqdp-81">
          <mxGeometry x="-5" y="0.25" width="30" height="30" as="geometry" />
        </mxCell>
        <mxCell id="6mvIVdEZMa_-6Su6zqdp-85" value="" style="editableCssRules=.*;html=1;shape=image;verticalLabelPosition=bottom;labelBackgroundColor=#ffffff;verticalAlign=top;aspect=fixed;imageAspect=0;image=data:image/svg+xml,PHN2ZyB4bWxucz0iaHR0cDovL3d3dy53My5vcmcvMjAwMC9zdmciIHhtbG5zOnY9Imh0dHBzOi8vdmVjdGEuaW8vbmFubyIgd2lkdGg9IjE4LjMxOTk5OTY5NDgyNDIyIiBoZWlnaHQ9IjIwLjAwMDAwMTkwNzM0ODYzMyIgdmlld0JveD0iMCAwIDE4LjMxOTk5OTY5NDgyNDIyIDIwLjAwMDAwMTkwNzM0ODYzMyI+JiN4YTsJPHN0eWxlIHR5cGU9InRleHQvY3NzIj4mI3hhOwkuc3Qwe2ZpbGw6IzY2OWRmNjt9JiN4YTsJLnN0MXtmaWxsOiM0Mjg1ZjQ7fSYjeGE7CS5zdDJ7ZmlsbDojYWVjYmZhO30mI3hhOwk8L3N0eWxlPiYjeGE7CTxkZWZzPiYjeGE7CQk8ZmlsdGVyIGlkPSJBIiB4PSI0LjY0IiB5PSI0LjE5IiB3aWR0aD0iMTQuNzMiIGhlaWdodD0iMTIuNzYiIGZpbHRlclVuaXRzPSJ1c2VyU3BhY2VPblVzZSIgY29sb3ItaW50ZXJwb2xhdGlvbi1maWx0ZXJzPSJzUkdCIj4mI3hhOwkJCTxmZUZsb29kIGZsb29kLWNvbG9yPSIjZmZmIi8+JiN4YTsJCQk8ZmVCbGVuZCBpbj0iU291cmNlR3JhcGhpYyIvPiYjeGE7CQk8L2ZpbHRlcj4mI3hhOwkJPG1hc2sgaWQ9IkIiIHg9IjQuNjQiIHk9IjQuMTkiIHdpZHRoPSIxNC43MyIgaGVpZ2h0PSIxMi43NiIgbWFza1VuaXRzPSJ1c2VyU3BhY2VPblVzZSI+JiN4YTsJCQk8Y2lyY2xlIGN4PSIxMiIgY3k9IjEyLjIzIiByPSIzLjU4IiBmaWx0ZXI9InVybCgjQSkiLz4mI3hhOwkJPC9tYXNrPiYjeGE7CTwvZGVmcz4mI3hhOwk8ZyBjbGFzcz0ic3QwIj4mI3hhOwkJPGNpcmNsZSBjeD0iMTYuMTMiIGN5PSI2LjIxIiByPSIxLjcyIi8+JiN4YTsJCTxjaXJjbGUgY3g9IjIuMTkiIGN5PSI2LjIxIiByPSIxLjcyIi8+JiN4YTsJCTxjaXJjbGUgY3g9IjkuMTYiIGN5PSIxOC4yOCIgcj0iMS43MiIvPiYjeGE7CTwvZz4mI3hhOwk8ZyBtYXNrPSJ1cmwoI0IpIiB0cmFuc2Zvcm09InRyYW5zbGF0ZSgtMi44NCAtMikiPiYjeGE7CQk8cGF0aCB0cmFuc2Zvcm09Im1hdHJpeCguNSAtLjg3IC44NyAuNSAtNC41OSAyMC41MykiIGQ9Ik0xNC42OSAxMC4yMmgxLjU5djguMDRoLTEuNTl6IiBjbGFzcz0ic3QxIi8+JiN4YTsJCTxwYXRoIHRyYW5zZm9ybT0icm90YXRlKDMzMCA4LjUyMyAxNC4yNDQpIiBkPSJNNC40OSAxMy40NWg4LjA0djEuNTlINC40OXoiIGNsYXNzPSJzdDEiLz4mI3hhOwkJPHBhdGggZD0iTTExLjIgNC4xOWgxLjU5djguMDRIMTEuMnoiIGNsYXNzPSJzdDEiLz4mI3hhOwk8L2c+JiN4YTsJPGcgY2xhc3M9InN0MiI+JiN4YTsJCTxjaXJjbGUgY3g9IjkuMTYiIGN5PSIxMC4yMyIgcj0iMi43OCIvPiYjeGE7CQk8Y2lyY2xlIGN4PSIyLjE5IiBjeT0iMTQuMjUiIHI9IjIuMTkiLz4mI3hhOwkJPGNpcmNsZSBjeD0iMTYuMTMiIGN5PSIxNC4yNSIgcj0iMi4xOSIvPiYjeGE7CQk8Y2lyY2xlIGN4PSI5LjE2IiBjeT0iMi4xOSIgcj0iMi4xOSIvPiYjeGE7CTwvZz4mI3hhOzwvc3ZnPg==;" vertex="1" parent="6mvIVdEZMa_-6Su6zqdp-81">
          <mxGeometry x="84" y="7.5" width="13.5" height="15" as="geometry" />
        </mxCell>
        <mxCell id="6mvIVdEZMa_-6Su6zqdp-86" value="E" style="group" vertex="1" connectable="0" parent="1">
          <mxGeometry x="350" y="456" width="126.25" height="30.25" as="geometry" />
        </mxCell>
        <mxCell id="6mvIVdEZMa_-6Su6zqdp-87" value="SMTP" style="strokeWidth=2;html=1;shape=mxgraph.flowchart.stored_data;whiteSpace=wrap;shadow=1;fillColor=#E2F0D9;fontFamily=Helvetica;fontSize=12;align=center;strokeColor=#548235;fontStyle=1;fontColor=#548235;" vertex="1" parent="6mvIVdEZMa_-6Su6zqdp-86">
          <mxGeometry y="0.25" width="90" height="30" as="geometry" />
        </mxCell>
        <mxCell id="6mvIVdEZMa_-6Su6zqdp-88" value="" style="ellipse;whiteSpace=wrap;html=1;shadow=0;strokeColor=#548235;strokeWidth=2;fillColor=#E2F0D9;fontFamily=Helvetica;fontSize=9;align=right;rotation=90;" vertex="1" parent="6mvIVdEZMa_-6Su6zqdp-86">
          <mxGeometry x="75.75" y="7.5" width="30" height="15" as="geometry" />
        </mxCell>
        <mxCell id="6mvIVdEZMa_-6Su6zqdp-89" value="T" style="text;html=1;align=center;verticalAlign=middle;resizable=0;points=[];autosize=1;fontSize=12;fontFamily=Helvetica;fontColor=#548235;fontStyle=1" vertex="1" parent="6mvIVdEZMa_-6Su6zqdp-86">
          <mxGeometry x="-5" y="0.25" width="30" height="30" as="geometry" />
        </mxCell>
        <mxCell id="6mvIVdEZMa_-6Su6zqdp-90" value="" style="editableCssRules=.*;html=1;shape=image;verticalLabelPosition=bottom;labelBackgroundColor=#ffffff;verticalAlign=top;aspect=fixed;imageAspect=0;image=data:image/svg+xml,PHN2ZyB4bWxucz0iaHR0cDovL3d3dy53My5vcmcvMjAwMC9zdmciIHhtbG5zOnY9Imh0dHBzOi8vdmVjdGEuaW8vbmFubyIgd2lkdGg9IjE4LjMxOTk5OTY5NDgyNDIyIiBoZWlnaHQ9IjIwLjAwMDAwMTkwNzM0ODYzMyIgdmlld0JveD0iMCAwIDE4LjMxOTk5OTY5NDgyNDIyIDIwLjAwMDAwMTkwNzM0ODYzMyI+JiN4YTsJPHN0eWxlIHR5cGU9InRleHQvY3NzIj4mI3hhOwkuc3Qwe2ZpbGw6IzY2OWRmNjt9JiN4YTsJLnN0MXtmaWxsOiM0Mjg1ZjQ7fSYjeGE7CS5zdDJ7ZmlsbDojYWVjYmZhO30mI3hhOwk8L3N0eWxlPiYjeGE7CTxkZWZzPiYjeGE7CQk8ZmlsdGVyIGlkPSJBIiB4PSI0LjY0IiB5PSI0LjE5IiB3aWR0aD0iMTQuNzMiIGhlaWdodD0iMTIuNzYiIGZpbHRlclVuaXRzPSJ1c2VyU3BhY2VPblVzZSIgY29sb3ItaW50ZXJwb2xhdGlvbi1maWx0ZXJzPSJzUkdCIj4mI3hhOwkJCTxmZUZsb29kIGZsb29kLWNvbG9yPSIjZmZmIi8+JiN4YTsJCQk8ZmVCbGVuZCBpbj0iU291cmNlR3JhcGhpYyIvPiYjeGE7CQk8L2ZpbHRlcj4mI3hhOwkJPG1hc2sgaWQ9IkIiIHg9IjQuNjQiIHk9IjQuMTkiIHdpZHRoPSIxNC43MyIgaGVpZ2h0PSIxMi43NiIgbWFza1VuaXRzPSJ1c2VyU3BhY2VPblVzZSI+JiN4YTsJCQk8Y2lyY2xlIGN4PSIxMiIgY3k9IjEyLjIzIiByPSIzLjU4IiBmaWx0ZXI9InVybCgjQSkiLz4mI3hhOwkJPC9tYXNrPiYjeGE7CTwvZGVmcz4mI3hhOwk8ZyBjbGFzcz0ic3QwIj4mI3hhOwkJPGNpcmNsZSBjeD0iMTYuMTMiIGN5PSI2LjIxIiByPSIxLjcyIi8+JiN4YTsJCTxjaXJjbGUgY3g9IjIuMTkiIGN5PSI2LjIxIiByPSIxLjcyIi8+JiN4YTsJCTxjaXJjbGUgY3g9IjkuMTYiIGN5PSIxOC4yOCIgcj0iMS43MiIvPiYjeGE7CTwvZz4mI3hhOwk8ZyBtYXNrPSJ1cmwoI0IpIiB0cmFuc2Zvcm09InRyYW5zbGF0ZSgtMi44NCAtMikiPiYjeGE7CQk8cGF0aCB0cmFuc2Zvcm09Im1hdHJpeCguNSAtLjg3IC44NyAuNSAtNC41OSAyMC41MykiIGQ9Ik0xNC42OSAxMC4yMmgxLjU5djguMDRoLTEuNTl6IiBjbGFzcz0ic3QxIi8+JiN4YTsJCTxwYXRoIHRyYW5zZm9ybT0icm90YXRlKDMzMCA4LjUyMyAxNC4yNDQpIiBkPSJNNC40OSAxMy40NWg4LjA0djEuNTlINC40OXoiIGNsYXNzPSJzdDEiLz4mI3hhOwkJPHBhdGggZD0iTTExLjIgNC4xOWgxLjU5djguMDRIMTEuMnoiIGNsYXNzPSJzdDEiLz4mI3hhOwk8L2c+JiN4YTsJPGcgY2xhc3M9InN0MiI+JiN4YTsJCTxjaXJjbGUgY3g9IjkuMTYiIGN5PSIxMC4yMyIgcj0iMi43OCIvPiYjeGE7CQk8Y2lyY2xlIGN4PSIyLjE5IiBjeT0iMTQuMjUiIHI9IjIuMTkiLz4mI3hhOwkJPGNpcmNsZSBjeD0iMTYuMTMiIGN5PSIxNC4yNSIgcj0iMi4xOSIvPiYjeGE7CQk8Y2lyY2xlIGN4PSI5LjE2IiBjeT0iMi4xOSIgcj0iMi4xOSIvPiYjeGE7CTwvZz4mI3hhOzwvc3ZnPg==;" vertex="1" parent="6mvIVdEZMa_-6Su6zqdp-86">
          <mxGeometry x="84" y="7.5" width="13.5" height="15" as="geometry" />
        </mxCell>
        <mxCell id="6mvIVdEZMa_-6Su6zqdp-91" value="" style="endArrow=classic;html=1;strokeColor=#000000;fontFamily=Helvetica;fontSize=12;fontColor=#FFFFFF;strokeWidth=2;exitX=1;exitY=0.5;exitDx=0;exitDy=0;entryX=0;entryY=0.5;entryDx=0;entryDy=0;entryPerimeter=0;edgeStyle=orthogonalEdgeStyle;" edge="1" parent="1" source="6mvIVdEZMa_-6Su6zqdp-35" target="6mvIVdEZMa_-6Su6zqdp-87">
          <mxGeometry width="50" height="50" relative="1" as="geometry">
            <mxPoint x="330" y="449" as="sourcePoint" />
            <mxPoint x="360" y="522" as="targetPoint" />
            <Array as="points">
              <mxPoint x="330" y="431" />
              <mxPoint x="330" y="471" />
            </Array>
          </mxGeometry>
        </mxCell>
        <mxCell id="6mvIVdEZMa_-6Su6zqdp-92" value="" style="endArrow=classic;html=1;strokeColor=#000000;fontFamily=Helvetica;fontSize=12;fontColor=#FFFFFF;strokeWidth=2;exitX=1;exitY=0.5;exitDx=0;exitDy=0;entryX=0;entryY=0.5;entryDx=0;entryDy=0;entryPerimeter=0;" edge="1" parent="1" source="6mvIVdEZMa_-6Su6zqdp-35" target="6mvIVdEZMa_-6Su6zqdp-82">
          <mxGeometry width="50" height="50" relative="1" as="geometry">
            <mxPoint x="340" y="459" as="sourcePoint" />
            <mxPoint x="370" y="532" as="targetPoint" />
          </mxGeometry>
        </mxCell>
        <mxCell id="6mvIVdEZMa_-6Su6zqdp-93" value="SMTP&lt;br&gt;Delivery" style="rounded=0;whiteSpace=wrap;html=1;shadow=1;strokeColor=#548235;fillColor=#E2F0D9;strokeWidth=2;fontStyle=1;fontFamily=Helvetica;fontColor=#548235;spacingLeft=8;" vertex="1" parent="1">
          <mxGeometry x="470" y="456.25" width="110" height="30" as="geometry" />
        </mxCell>
        <mxCell id="6mvIVdEZMa_-6Su6zqdp-94" value="" style="html=1;aspect=fixed;strokeColor=none;shadow=0;align=center;verticalAlign=top;fillColor=#548235;shape=mxgraph.gcp2.gear;dashed=1;fontFamily=Helvetica;fontSize=9;" vertex="1" parent="1">
          <mxGeometry x="473" y="461.25" width="20" height="20" as="geometry" />
        </mxCell>
        <mxCell id="6mvIVdEZMa_-6Su6zqdp-95" value="US" style="text;html=1;align=right;verticalAlign=middle;resizable=0;points=[];autosize=1;spacingRight=2;fontSize=9;fontFamily=Helvetica;fontColor=#548235;" vertex="1" parent="1">
          <mxGeometry x="547" y="454.25" width="30" height="20" as="geometry" />
        </mxCell>
        <mxCell id="6mvIVdEZMa_-6Su6zqdp-96" value="" style="editableCssRules=.*;html=1;shape=image;verticalLabelPosition=bottom;labelBackgroundColor=#ffffff;verticalAlign=top;aspect=fixed;imageAspect=0;image=data:image/svg+xml,PHN2ZyB4bWxucz0iaHR0cDovL3d3dy53My5vcmcvMjAwMC9zdmciIHhtbG5zOnY9Imh0dHBzOi8vdmVjdGEuaW8vbmFubyIgd2lkdGg9IjM2NS40NjQ5OTY3NzA0MjQ5MyIgaGVpZ2h0PSIzNzkuMjIyOTk0NDYzNTc3OTUiIHZpZXdCb3g9IjAgMCA5Ni42OTU5OTkxNDU1MDc4MSAxMDAuMzM1OTk4NTM1MTU2MjUiPiYjeGE7PHN0eWxlIHR5cGU9InRleHQvY3NzIj4mI3hhOwkuc3Qwe2ZpbGw6IzQyODVmNDt9JiN4YTsJLnN0MXtmaWxsOiNhZWNiZmE7fSYjeGE7PC9zdHlsZT4mI3hhOwk8cGF0aCBjbGFzcz0ic3QwIiBkPSJNMjkuNzk0IDEwMC4zMzZMNDYuOTIgNTAuMTY4aDQ5Ljc3NnpNMCA5OS42NzFsMTIuOTc2LTQ5LjUwMkgyOS4yMkwxNi44OTcgOTIuMDU0eiIvPiYjeGE7CTxwYXRoIGNsYXNzPSJzdDEiIGQ9Ik0yOS43OTQgMEw0Ni45MiA1MC4xNjhoNDkuNzc2ek0wIC42NjZsMTIuOTc2IDQ5LjUwMkgyOS4yMkwxNi44OTcgOC4yODN6Ii8+JiN4YTs8L3N2Zz4=;" vertex="1" parent="1">
          <mxGeometry x="563" y="470.25" width="14" height="14" as="geometry" />
        </mxCell>
        <mxCell id="6mvIVdEZMa_-6Su6zqdp-97" value="Acton&lt;br&gt;Delivery" style="rounded=0;whiteSpace=wrap;html=1;shadow=1;strokeColor=#548235;fillColor=#E2F0D9;strokeWidth=2;fontStyle=1;fontFamily=Helvetica;fontColor=#548235;spacingLeft=8;" vertex="1" parent="1">
          <mxGeometry x="470" y="416" width="110" height="30" as="geometry" />
        </mxCell>
        <mxCell id="6mvIVdEZMa_-6Su6zqdp-98" value="" style="html=1;aspect=fixed;strokeColor=none;shadow=0;align=center;verticalAlign=top;fillColor=#548235;shape=mxgraph.gcp2.gear;dashed=1;fontFamily=Helvetica;fontSize=9;" vertex="1" parent="1">
          <mxGeometry x="473" y="422" width="20" height="20" as="geometry" />
        </mxCell>
        <mxCell id="6mvIVdEZMa_-6Su6zqdp-99" value="US" style="text;html=1;align=right;verticalAlign=middle;resizable=0;points=[];autosize=1;spacingRight=2;fontSize=9;fontFamily=Helvetica;fontColor=#548235;" vertex="1" parent="1">
          <mxGeometry x="547" y="415" width="30" height="20" as="geometry" />
        </mxCell>
        <mxCell id="6mvIVdEZMa_-6Su6zqdp-100" value="" style="editableCssRules=.*;html=1;shape=image;verticalLabelPosition=bottom;labelBackgroundColor=#ffffff;verticalAlign=top;aspect=fixed;imageAspect=0;image=data:image/svg+xml,PHN2ZyB4bWxucz0iaHR0cDovL3d3dy53My5vcmcvMjAwMC9zdmciIHhtbG5zOnY9Imh0dHBzOi8vdmVjdGEuaW8vbmFubyIgd2lkdGg9IjM2NS40NjQ5OTY3NzA0MjQ5MyIgaGVpZ2h0PSIzNzkuMjIyOTk0NDYzNTc3OTUiIHZpZXdCb3g9IjAgMCA5Ni42OTU5OTkxNDU1MDc4MSAxMDAuMzM1OTk4NTM1MTU2MjUiPiYjeGE7PHN0eWxlIHR5cGU9InRleHQvY3NzIj4mI3hhOwkuc3Qwe2ZpbGw6IzQyODVmNDt9JiN4YTsJLnN0MXtmaWxsOiNhZWNiZmE7fSYjeGE7PC9zdHlsZT4mI3hhOwk8cGF0aCBjbGFzcz0ic3QwIiBkPSJNMjkuNzk0IDEwMC4zMzZMNDYuOTIgNTAuMTY4aDQ5Ljc3NnpNMCA5OS42NzFsMTIuOTc2LTQ5LjUwMkgyOS4yMkwxNi44OTcgOTIuMDU0eiIvPiYjeGE7CTxwYXRoIGNsYXNzPSJzdDEiIGQ9Ik0yOS43OTQgMEw0Ni45MiA1MC4xNjhoNDkuNzc2ek0wIC42NjZsMTIuOTc2IDQ5LjUwMkgyOS4yMkwxNi44OTcgOC4yODN6Ii8+JiN4YTs8L3N2Zz4=;" vertex="1" parent="1">
          <mxGeometry x="563" y="430" width="14" height="14" as="geometry" />
        </mxCell>
        <mxCell id="6mvIVdEZMa_-6Su6zqdp-101" value="" style="endArrow=classic;html=1;strokeColor=#000000;fontFamily=Helvetica;fontSize=12;fontColor=#FFFFFF;strokeWidth=2;exitX=1;exitY=0.5;exitDx=0;exitDy=0;entryX=0.07;entryY=0.4;entryDx=0;entryDy=0;entryPerimeter=0;jumpStyle=gap;" edge="1" parent="1" source="6mvIVdEZMa_-6Su6zqdp-93" target="6mvIVdEZMa_-6Su6zqdp-41">
          <mxGeometry width="50" height="50" relative="1" as="geometry">
            <mxPoint x="590" y="512" as="sourcePoint" />
            <mxPoint x="639" y="523" as="targetPoint" />
          </mxGeometry>
        </mxCell>
        <mxCell id="6mvIVdEZMa_-6Su6zqdp-102" value="" style="endArrow=classic;html=1;strokeColor=#000000;fontFamily=Helvetica;fontSize=12;fontColor=#FFFFFF;strokeWidth=2;exitX=1;exitY=0.5;exitDx=0;exitDy=0;entryX=0.07;entryY=0.4;entryDx=0;entryDy=0;entryPerimeter=0;jumpStyle=gap;" edge="1" parent="1" source="6mvIVdEZMa_-6Su6zqdp-97" target="6mvIVdEZMa_-6Su6zqdp-40">
          <mxGeometry width="50" height="50" relative="1" as="geometry">
            <mxPoint x="590" y="471" as="sourcePoint" />
            <mxPoint x="639" y="480" as="targetPoint" />
          </mxGeometry>
        </mxCell>
        <mxCell id="6mvIVdEZMa_-6Su6zqdp-103" value="" style="group;fillColor=#ffffff;" vertex="1" connectable="0" parent="1">
          <mxGeometry x="40.31" y="601.75" width="109.69" height="30" as="geometry" />
        </mxCell>
        <mxCell id="6mvIVdEZMa_-6Su6zqdp-104" value="" style="group" vertex="1" connectable="0" parent="6mvIVdEZMa_-6Su6zqdp-103">
          <mxGeometry width="109.69" height="30" as="geometry" />
        </mxCell>
        <mxCell id="6mvIVdEZMa_-6Su6zqdp-105" value="Trigger" style="rounded=0;whiteSpace=wrap;html=1;shadow=1;strokeColor=#0070C0;fillColor=#DAE3F3;strokeWidth=2;fontStyle=1;fontFamily=Helvetica;fontColor=#0070C0;" vertex="1" parent="6mvIVdEZMa_-6Su6zqdp-104">
          <mxGeometry width="109.69" height="30" as="geometry" />
        </mxCell>
        <mxCell id="6mvIVdEZMa_-6Su6zqdp-106" value="C" style="text;html=1;align=right;verticalAlign=middle;resizable=0;points=[];autosize=1;spacingRight=2;fontSize=9;fontFamily=Helvetica;fontColor=#0070C0;" vertex="1" parent="6mvIVdEZMa_-6Su6zqdp-104">
          <mxGeometry x="87.40833333333333" width="20" height="20" as="geometry" />
        </mxCell>
        <mxCell id="6mvIVdEZMa_-6Su6zqdp-107" value="" style="pointerEvents=1;shadow=0;dashed=0;html=1;strokeColor=none;fillColor=#0070C0;aspect=fixed;labelPosition=center;verticalLabelPosition=bottom;verticalAlign=top;align=center;outlineConnect=0;shape=mxgraph.vvd.cpu;fontFamily=Helvetica;fontSize=9;" vertex="1" parent="6mvIVdEZMa_-6Su6zqdp-104">
          <mxGeometry x="3.6563333333333334" y="2.9" width="7.884554700854701" height="7.884554700854701" as="geometry" />
        </mxCell>
        <mxCell id="6mvIVdEZMa_-6Su6zqdp-108" value="" style="endArrow=classic;html=1;strokeColor=#000000;fontFamily=Helvetica;fontSize=12;fontColor=#FFFFFF;strokeWidth=2;exitX=1;exitY=0.25;exitDx=0;exitDy=0;entryX=0;entryY=0.5;entryDx=0;entryDy=0;edgeStyle=elbowEdgeStyle;jumpStyle=none;" edge="1" parent="1" source="6mvIVdEZMa_-6Su6zqdp-105" target="6mvIVdEZMa_-6Su6zqdp-35">
          <mxGeometry x="0.1515" width="50" height="50" relative="1" as="geometry">
            <mxPoint x="158" y="485" as="sourcePoint" />
            <mxPoint x="220" y="425" as="targetPoint" />
            <Array as="points">
              <mxPoint x="174" y="519" />
            </Array>
            <mxPoint as="offset" />
          </mxGeometry>
        </mxCell>
        <mxCell id="6mvIVdEZMa_-6Su6zqdp-109" value="" style="endArrow=classic;html=1;strokeColor=#000000;fontFamily=Helvetica;fontSize=12;fontColor=#FFFFFF;strokeWidth=2;exitX=0.5;exitY=0;exitDx=0;exitDy=0;entryX=0;entryY=0.5;entryDx=0;entryDy=0;" edge="1" parent="1" source="6mvIVdEZMa_-6Su6zqdp-88" target="6mvIVdEZMa_-6Su6zqdp-93">
          <mxGeometry width="50" height="50" relative="1" as="geometry">
            <mxPoint x="458" y="522" as="sourcePoint" />
            <mxPoint x="480" y="522" as="targetPoint" />
          </mxGeometry>
        </mxCell>
        <mxCell id="6mvIVdEZMa_-6Su6zqdp-110" value="" style="endArrow=classic;html=1;strokeColor=#000000;fontFamily=Helvetica;fontSize=12;fontColor=#FFFFFF;strokeWidth=2;exitX=0.5;exitY=0;exitDx=0;exitDy=0;entryX=0;entryY=0.5;entryDx=0;entryDy=0;" edge="1" parent="1" source="6mvIVdEZMa_-6Su6zqdp-83" target="6mvIVdEZMa_-6Su6zqdp-97">
          <mxGeometry width="50" height="50" relative="1" as="geometry">
            <mxPoint x="468" y="532" as="sourcePoint" />
            <mxPoint x="490" y="532" as="targetPoint" />
          </mxGeometry>
        </mxCell>
        <mxCell id="6mvIVdEZMa_-6Su6zqdp-111" value="New Clients" style="rounded=1;whiteSpace=wrap;html=1;dashed=1;align=right;verticalAlign=top;spacingRight=9;arcSize=6;spacing=0;" vertex="1" parent="1">
          <mxGeometry x="30.15" y="373.75" width="140.15" height="61.25" as="geometry" />
        </mxCell>
        <mxCell id="6mvIVdEZMa_-6Su6zqdp-112" value="" style="group;fillColor=#ffffff;" vertex="1" connectable="0" parent="1">
          <mxGeometry x="40.15" y="395" width="110" height="30" as="geometry" />
        </mxCell>
        <mxCell id="6mvIVdEZMa_-6Su6zqdp-113" value="" style="group" vertex="1" connectable="0" parent="6mvIVdEZMa_-6Su6zqdp-112">
          <mxGeometry width="110" height="30" as="geometry" />
        </mxCell>
        <mxCell id="6mvIVdEZMa_-6Su6zqdp-114" value="Trigger" style="rounded=0;whiteSpace=wrap;html=1;shadow=1;strokeColor=#0070C0;fillColor=#DAE3F3;strokeWidth=2;fontStyle=1;fontFamily=Helvetica;fontColor=#0070C0;" vertex="1" parent="6mvIVdEZMa_-6Su6zqdp-113">
          <mxGeometry width="110" height="30" as="geometry" />
        </mxCell>
        <mxCell id="6mvIVdEZMa_-6Su6zqdp-115" value="C" style="text;html=1;align=right;verticalAlign=middle;resizable=0;points=[];autosize=1;spacingRight=2;fontSize=9;fontFamily=Helvetica;fontColor=#0070C0;" vertex="1" parent="6mvIVdEZMa_-6Su6zqdp-113">
          <mxGeometry x="88.41666666666667" y="-1" width="20" height="20" as="geometry" />
        </mxCell>
        <mxCell id="6mvIVdEZMa_-6Su6zqdp-116" value="" style="pointerEvents=1;shadow=0;dashed=0;html=1;strokeColor=none;fillColor=#0070C0;aspect=fixed;labelPosition=center;verticalLabelPosition=bottom;verticalAlign=top;align=center;outlineConnect=0;shape=mxgraph.vvd.cpu;fontFamily=Helvetica;fontSize=9;" vertex="1" parent="6mvIVdEZMa_-6Su6zqdp-113">
          <mxGeometry x="3.4166666666666665" y="2.9" width="7.367735042735043" height="7.367735042735043" as="geometry" />
        </mxCell>
        <mxCell id="6mvIVdEZMa_-6Su6zqdp-117" value="" style="endArrow=classic;html=1;strokeColor=#000000;fontFamily=Helvetica;fontSize=12;fontColor=#FFFFFF;strokeWidth=2;exitX=1;exitY=0.5;exitDx=0;exitDy=0;entryX=0;entryY=0.5;entryDx=0;entryDy=0;edgeStyle=elbowEdgeStyle;jumpStyle=none;" edge="1" parent="1" source="6mvIVdEZMa_-6Su6zqdp-114" target="6mvIVdEZMa_-6Su6zqdp-35">
          <mxGeometry x="0.8946" y="-25" width="50" height="50" relative="1" as="geometry">
            <mxPoint x="160" y="304" as="sourcePoint" />
            <mxPoint x="220" y="468" as="targetPoint" />
            <Array as="points">
              <mxPoint x="175" y="421" />
            </Array>
            <mxPoint as="offset" />
          </mxGeometry>
        </mxCell>
        <mxCell id="6mvIVdEZMa_-6Su6zqdp-118" value="" style="group" vertex="1" connectable="0" parent="1">
          <mxGeometry x="230" y="486.99999999999994" width="61" height="70" as="geometry" />
        </mxCell>
        <mxCell id="6mvIVdEZMa_-6Su6zqdp-119" value="" style="group" vertex="1" connectable="0" parent="6mvIVdEZMa_-6Su6zqdp-118">
          <mxGeometry x="-27" y="-13" width="91" height="70" as="geometry" />
        </mxCell>
        <mxCell id="6mvIVdEZMa_-6Su6zqdp-120" value="&lt;font style=&quot;font-size: 10px&quot;&gt;Communication&lt;br&gt;Event&lt;br&gt;(GCP BQ)&lt;br&gt;&lt;/font&gt;" style="strokeWidth=2;html=1;shape=mxgraph.flowchart.database;whiteSpace=wrap;perimeterSpacing=0;fillOpacity=100;strokeOpacity=100;container=0;shadow=1;fontSize=12;verticalAlign=middle;strokeColor=#548235;fillColor=#e2f0d9;rounded=0;fontColor=#548235;fontStyle=1;gradientDirection=west;spacingTop=15;" vertex="1" parent="6mvIVdEZMa_-6Su6zqdp-119">
          <mxGeometry width="91" height="70" as="geometry" />
        </mxCell>
        <mxCell id="6mvIVdEZMa_-6Su6zqdp-121" value="" style="editableCssRules=.*;html=1;shape=image;verticalLabelPosition=bottom;labelBackgroundColor=#ffffff;verticalAlign=top;aspect=fixed;imageAspect=0;image=data:image/svg+xml,PHN2ZyB4bWxucz0iaHR0cDovL3d3dy53My5vcmcvMjAwMC9zdmciIHhtbG5zOnY9Imh0dHBzOi8vdmVjdGEuaW8vbmFubyIgd2lkdGg9IjIwLjAwMTA0NTIyNzA1MDc4IiBoZWlnaHQ9IjIwLjAwMTA0NTIyNzA1MDc4IiBmaWxsLXJ1bGU9ImV2ZW5vZGQiIHZpZXdCb3g9IjAgMCAyMC4wMDEwNDUyMjcwNTA3OCAyMC4wMDEwNDUyMjcwNTA3OCI+JiN4YTsJPHN0eWxlIHR5cGU9InRleHQvY3NzIj4mI3hhOwkuc3Qwe2ZpbGw6I2FlY2JmYTt9JiN4YTsJLnN0MXtmaWxsOiM2NjlkZjY7fSYjeGE7CS5zdDJ7ZmlsbDojNDI4NWY0O30mI3hhOwk8L3N0eWxlPiYjeGE7CTxwYXRoIGNsYXNzPSJzdDAiIGQ9Ik00LjczIDguODN2Mi42M2E0LjkxIDQuOTEgMCAwIDAgMS43MSAxLjc0VjguODN6Ii8+JiN4YTsJPHBhdGggY2xhc3M9InN0MSIgZD0iTTcuODkgNi40MXY3LjUzQTcuNjIgNy42MiAwIDAgMCA5IDE0YTggOCAwIDAgMCAxIDBWNi40MXoiLz4mI3hhOwk8cGF0aCBjbGFzcz0ic3QwIiBkPSJNMTEuNjQgOS44NnYzLjI5YTUgNSAwIDAgMCAxLjctMS44MlY5Ljg2eiIvPiYjeGE7CTxwYXRoIGNsYXNzPSJzdDIiIGQ9Ik0xNS43NCAxNC4zMmwtMS40MiAxLjQyYS40Mi40MiAwIDAgMCAwIC42bDMuNTQgMy41NGEuNDIuNDIgMCAwIDAgLjU5IDBsMS40My0xLjQzYS40Mi40MiAwIDAgMCAwLS41OWwtMy41NC0zLjU0YS40Mi40MiAwIDAgMC0uNiAwIi8+JiN4YTsJPHBhdGggY2xhc3M9InN0MSIgZD0iTTkgMGE5IDkgMCAxIDAgMCAxOEE5IDkgMCAxIDAgOSAwbTAgMTUuNjlhNi42OCA2LjY4IDAgMCAxIC4wMDctMTMuMzYgNi42OCA2LjY4IDAgMCAxIDQuNzI3IDExLjQwM0E2LjY4IDYuNjggMCAwIDEgOSAxNS42OSIvPiYjeGE7PC9zdmc+;" vertex="1" parent="6mvIVdEZMa_-6Su6zqdp-119">
          <mxGeometry x="39" y="4.120000000000061" width="13" height="13" as="geometry" />
        </mxCell>
        <mxCell id="6mvIVdEZMa_-6Su6zqdp-122" value="" style="endArrow=classic;html=1;strokeColor=#000000;fontFamily=Helvetica;fontSize=12;fontColor=#FFFFFF;strokeWidth=2;exitX=0.1;exitY=1;exitDx=0;exitDy=0;entryX=1;entryY=0.5;entryDx=0;entryDy=0;entryPerimeter=0;exitPerimeter=0;edgeStyle=elbowEdgeStyle;jumpStyle=gap;" edge="1" parent="1" source="6mvIVdEZMa_-6Su6zqdp-82" target="6mvIVdEZMa_-6Su6zqdp-120">
          <mxGeometry width="50" height="50" relative="1" as="geometry">
            <mxPoint x="330" y="441" as="sourcePoint" />
            <mxPoint x="360" y="441" as="targetPoint" />
            <Array as="points">
              <mxPoint x="320" y="470" />
            </Array>
          </mxGeometry>
        </mxCell>
        <mxCell id="6mvIVdEZMa_-6Su6zqdp-123" value="" style="endArrow=classic;html=1;strokeColor=#000000;fontFamily=Helvetica;fontSize=12;fontColor=#FFFFFF;strokeWidth=2;exitX=0.1;exitY=1;exitDx=0;exitDy=0;entryX=1;entryY=0.5;entryDx=0;entryDy=0;entryPerimeter=0;exitPerimeter=0;edgeStyle=elbowEdgeStyle;jumpStyle=gap;" edge="1" parent="1" source="6mvIVdEZMa_-6Su6zqdp-87" target="6mvIVdEZMa_-6Su6zqdp-120">
          <mxGeometry width="50" height="50" relative="1" as="geometry">
            <mxPoint x="362" y="449" as="sourcePoint" />
            <mxPoint x="301" y="526" as="targetPoint" />
            <Array as="points">
              <mxPoint x="320" y="496" />
            </Array>
          </mxGeometry>
        </mxCell>
        <mxCell id="6mvIVdEZMa_-6Su6zqdp-124" value="" style="endArrow=classic;html=1;strokeColor=#000000;fontFamily=Helvetica;fontSize=12;fontColor=#FFFFFF;strokeWidth=2;exitX=0.1;exitY=1;exitDx=0;exitDy=0;entryX=1;entryY=0.5;entryDx=0;entryDy=0;entryPerimeter=0;exitPerimeter=0;edgeStyle=elbowEdgeStyle;jumpStyle=gap;" edge="1" parent="1" source="6mvIVdEZMa_-6Su6zqdp-62" target="6mvIVdEZMa_-6Su6zqdp-120">
          <mxGeometry width="50" height="50" relative="1" as="geometry">
            <mxPoint x="372" y="459" as="sourcePoint" />
            <mxPoint x="311" y="536" as="targetPoint" />
            <Array as="points">
              <mxPoint x="320" y="516" />
            </Array>
          </mxGeometry>
        </mxCell>
        <mxCell id="6mvIVdEZMa_-6Su6zqdp-125" value="" style="endArrow=classic;html=1;strokeColor=#000000;fontFamily=Helvetica;fontSize=12;fontColor=#FFFFFF;strokeWidth=2;exitX=0.1;exitY=1;exitDx=0;exitDy=0;entryX=1;entryY=0.5;entryDx=0;entryDy=0;entryPerimeter=0;exitPerimeter=0;edgeStyle=elbowEdgeStyle;" edge="1" parent="1" source="6mvIVdEZMa_-6Su6zqdp-67" target="6mvIVdEZMa_-6Su6zqdp-120">
          <mxGeometry width="50" height="50" relative="1" as="geometry">
            <mxPoint x="382" y="469" as="sourcePoint" />
            <mxPoint x="321" y="546" as="targetPoint" />
            <Array as="points">
              <mxPoint x="320" y="536" />
            </Array>
          </mxGeometry>
        </mxCell>
        <mxCell id="6mvIVdEZMa_-6Su6zqdp-126" value="New Customer Clients" style="rounded=1;whiteSpace=wrap;html=1;dashed=1;align=right;verticalAlign=top;spacingRight=9;arcSize=6;spacing=0;" vertex="1" parent="1">
          <mxGeometry x="30" y="300" width="140" height="65" as="geometry" />
        </mxCell>
        <mxCell id="6mvIVdEZMa_-6Su6zqdp-127" value="Customer Communications - Google Cloud Platform" style="rounded=1;whiteSpace=wrap;html=1;dashed=1;align=right;verticalAlign=top;spacingRight=18;spacing=0;arcSize=6;fillColor=#fff2cc;strokeColor=#d6b656;" vertex="1" parent="1">
          <mxGeometry x="190" y="300" width="400" height="70" as="geometry" />
        </mxCell>
        <mxCell id="6mvIVdEZMa_-6Su6zqdp-128" value="" style="group" vertex="1" connectable="0" parent="1">
          <mxGeometry x="200" y="327" width="120" height="30" as="geometry" />
        </mxCell>
        <mxCell id="6mvIVdEZMa_-6Su6zqdp-129" value="Send Cust.&lt;br&gt;Event" style="rounded=0;whiteSpace=wrap;html=1;shadow=1;strokeColor=#548235;fillColor=#E2F0D9;strokeWidth=2;fontStyle=1;fontFamily=Helvetica;fontColor=#548235;spacingLeft=8;" vertex="1" parent="6mvIVdEZMa_-6Su6zqdp-128">
          <mxGeometry width="110" height="30" as="geometry" />
        </mxCell>
        <mxCell id="6mvIVdEZMa_-6Su6zqdp-130" value="" style="html=1;aspect=fixed;strokeColor=none;shadow=0;align=center;verticalAlign=top;fillColor=#548235;shape=mxgraph.gcp2.gear;dashed=1;fontFamily=Helvetica;fontSize=9;" vertex="1" parent="6mvIVdEZMa_-6Su6zqdp-128">
          <mxGeometry x="3" y="5" width="20" height="20" as="geometry" />
        </mxCell>
        <mxCell id="6mvIVdEZMa_-6Su6zqdp-131" value="US" style="text;html=1;align=right;verticalAlign=middle;resizable=0;points=[];autosize=1;spacingRight=2;fontSize=9;fontFamily=Helvetica;fontColor=#548235;" vertex="1" parent="6mvIVdEZMa_-6Su6zqdp-128">
          <mxGeometry x="77" y="-2" width="30" height="20" as="geometry" />
        </mxCell>
        <mxCell id="6mvIVdEZMa_-6Su6zqdp-132" value="" style="editableCssRules=.*;html=1;shape=image;verticalLabelPosition=bottom;labelBackgroundColor=#ffffff;verticalAlign=top;aspect=fixed;imageAspect=0;image=data:image/svg+xml,PHN2ZyB4bWxucz0iaHR0cDovL3d3dy53My5vcmcvMjAwMC9zdmciIHhtbG5zOnY9Imh0dHBzOi8vdmVjdGEuaW8vbmFubyIgd2lkdGg9IjM2NS40NjQ5OTY3NzA0MjQ5MyIgaGVpZ2h0PSIzNzkuMjIyOTk0NDYzNTc3OTUiIHZpZXdCb3g9IjAgMCA5Ni42OTU5OTkxNDU1MDc4MSAxMDAuMzM1OTk4NTM1MTU2MjUiPiYjeGE7PHN0eWxlIHR5cGU9InRleHQvY3NzIj4mI3hhOwkuc3Qwe2ZpbGw6IzQyODVmNDt9JiN4YTsJLnN0MXtmaWxsOiNhZWNiZmE7fSYjeGE7PC9zdHlsZT4mI3hhOwk8cGF0aCBjbGFzcz0ic3QwIiBkPSJNMjkuNzk0IDEwMC4zMzZMNDYuOTIgNTAuMTY4aDQ5Ljc3NnpNMCA5OS42NzFsMTIuOTc2LTQ5LjUwMkgyOS4yMkwxNi44OTcgOTIuMDU0eiIvPiYjeGE7CTxwYXRoIGNsYXNzPSJzdDEiIGQ9Ik0yOS43OTQgMEw0Ni45MiA1MC4xNjhoNDkuNzc2ek0wIC42NjZsMTIuOTc2IDQ5LjUwMkgyOS4yMkwxNi44OTcgOC4yODN6Ii8+JiN4YTs8L3N2Zz4=;" vertex="1" parent="6mvIVdEZMa_-6Su6zqdp-128">
          <mxGeometry x="93" y="14" width="14" height="14" as="geometry" />
        </mxCell>
        <mxCell id="6mvIVdEZMa_-6Su6zqdp-133" value="" style="group;fillColor=#ffffff;" vertex="1" connectable="0" parent="1">
          <mxGeometry x="40.31" y="327" width="102.5" height="30" as="geometry" />
        </mxCell>
        <mxCell id="6mvIVdEZMa_-6Su6zqdp-134" value="" style="group" vertex="1" connectable="0" parent="6mvIVdEZMa_-6Su6zqdp-133">
          <mxGeometry width="102.5" height="30" as="geometry" />
        </mxCell>
        <mxCell id="6mvIVdEZMa_-6Su6zqdp-135" value="Cust. Trigger" style="rounded=0;whiteSpace=wrap;html=1;shadow=1;strokeColor=#0070C0;fillColor=#DAE3F3;strokeWidth=2;fontStyle=1;fontFamily=Helvetica;fontColor=#0070C0;" vertex="1" parent="6mvIVdEZMa_-6Su6zqdp-134">
          <mxGeometry width="102.5" height="30" as="geometry" />
        </mxCell>
        <mxCell id="6mvIVdEZMa_-6Su6zqdp-136" value="C" style="text;html=1;align=right;verticalAlign=middle;resizable=0;points=[];autosize=1;spacingRight=2;fontSize=9;fontFamily=Helvetica;fontColor=#0070C0;" vertex="1" parent="6mvIVdEZMa_-6Su6zqdp-134">
          <mxGeometry x="79.41666666666667" width="20" height="20" as="geometry" />
        </mxCell>
        <mxCell id="6mvIVdEZMa_-6Su6zqdp-137" value="" style="pointerEvents=1;shadow=0;dashed=0;html=1;strokeColor=none;fillColor=#0070C0;aspect=fixed;labelPosition=center;verticalLabelPosition=bottom;verticalAlign=top;align=center;outlineConnect=0;shape=mxgraph.vvd.cpu;fontFamily=Helvetica;fontSize=9;" vertex="1" parent="6mvIVdEZMa_-6Su6zqdp-134">
          <mxGeometry x="3.4166666666666665" y="2.9" width="7.367735042735043" height="7.367735042735043" as="geometry" />
        </mxCell>
        <mxCell id="6mvIVdEZMa_-6Su6zqdp-138" value="" style="group" vertex="1" connectable="0" parent="1">
          <mxGeometry x="340" y="327" width="126.25" height="30.25" as="geometry" />
        </mxCell>
        <mxCell id="6mvIVdEZMa_-6Su6zqdp-139" value="Customer&lt;br&gt;Event" style="strokeWidth=2;html=1;shape=mxgraph.flowchart.stored_data;whiteSpace=wrap;shadow=1;fillColor=#E2F0D9;fontFamily=Helvetica;fontSize=12;align=center;strokeColor=#548235;fontStyle=1;fontColor=#548235;" vertex="1" parent="6mvIVdEZMa_-6Su6zqdp-138">
          <mxGeometry y="0.25" width="90" height="30" as="geometry" />
        </mxCell>
        <mxCell id="6mvIVdEZMa_-6Su6zqdp-140" value="" style="ellipse;whiteSpace=wrap;html=1;shadow=0;strokeColor=#548235;strokeWidth=2;fillColor=#E2F0D9;fontFamily=Helvetica;fontSize=9;align=right;rotation=90;" vertex="1" parent="6mvIVdEZMa_-6Su6zqdp-138">
          <mxGeometry x="75.75" y="7.5" width="30" height="15" as="geometry" />
        </mxCell>
        <mxCell id="6mvIVdEZMa_-6Su6zqdp-141" value="T" style="text;html=1;align=center;verticalAlign=middle;resizable=0;points=[];autosize=1;fontSize=12;fontFamily=Helvetica;fontColor=#548235;fontStyle=1" vertex="1" parent="6mvIVdEZMa_-6Su6zqdp-138">
          <mxGeometry x="-5" y="0.25" width="30" height="30" as="geometry" />
        </mxCell>
        <mxCell id="6mvIVdEZMa_-6Su6zqdp-142" value="" style="editableCssRules=.*;html=1;shape=image;verticalLabelPosition=bottom;labelBackgroundColor=#ffffff;verticalAlign=top;aspect=fixed;imageAspect=0;image=data:image/svg+xml,PHN2ZyB4bWxucz0iaHR0cDovL3d3dy53My5vcmcvMjAwMC9zdmciIHhtbG5zOnY9Imh0dHBzOi8vdmVjdGEuaW8vbmFubyIgd2lkdGg9IjE4LjMxOTk5OTY5NDgyNDIyIiBoZWlnaHQ9IjIwLjAwMDAwMTkwNzM0ODYzMyIgdmlld0JveD0iMCAwIDE4LjMxOTk5OTY5NDgyNDIyIDIwLjAwMDAwMTkwNzM0ODYzMyI+JiN4YTsJPHN0eWxlIHR5cGU9InRleHQvY3NzIj4mI3hhOwkuc3Qwe2ZpbGw6IzY2OWRmNjt9JiN4YTsJLnN0MXtmaWxsOiM0Mjg1ZjQ7fSYjeGE7CS5zdDJ7ZmlsbDojYWVjYmZhO30mI3hhOwk8L3N0eWxlPiYjeGE7CTxkZWZzPiYjeGE7CQk8ZmlsdGVyIGlkPSJBIiB4PSI0LjY0IiB5PSI0LjE5IiB3aWR0aD0iMTQuNzMiIGhlaWdodD0iMTIuNzYiIGZpbHRlclVuaXRzPSJ1c2VyU3BhY2VPblVzZSIgY29sb3ItaW50ZXJwb2xhdGlvbi1maWx0ZXJzPSJzUkdCIj4mI3hhOwkJCTxmZUZsb29kIGZsb29kLWNvbG9yPSIjZmZmIi8+JiN4YTsJCQk8ZmVCbGVuZCBpbj0iU291cmNlR3JhcGhpYyIvPiYjeGE7CQk8L2ZpbHRlcj4mI3hhOwkJPG1hc2sgaWQ9IkIiIHg9IjQuNjQiIHk9IjQuMTkiIHdpZHRoPSIxNC43MyIgaGVpZ2h0PSIxMi43NiIgbWFza1VuaXRzPSJ1c2VyU3BhY2VPblVzZSI+JiN4YTsJCQk8Y2lyY2xlIGN4PSIxMiIgY3k9IjEyLjIzIiByPSIzLjU4IiBmaWx0ZXI9InVybCgjQSkiLz4mI3hhOwkJPC9tYXNrPiYjeGE7CTwvZGVmcz4mI3hhOwk8ZyBjbGFzcz0ic3QwIj4mI3hhOwkJPGNpcmNsZSBjeD0iMTYuMTMiIGN5PSI2LjIxIiByPSIxLjcyIi8+JiN4YTsJCTxjaXJjbGUgY3g9IjIuMTkiIGN5PSI2LjIxIiByPSIxLjcyIi8+JiN4YTsJCTxjaXJjbGUgY3g9IjkuMTYiIGN5PSIxOC4yOCIgcj0iMS43MiIvPiYjeGE7CTwvZz4mI3hhOwk8ZyBtYXNrPSJ1cmwoI0IpIiB0cmFuc2Zvcm09InRyYW5zbGF0ZSgtMi44NCAtMikiPiYjeGE7CQk8cGF0aCB0cmFuc2Zvcm09Im1hdHJpeCguNSAtLjg3IC44NyAuNSAtNC41OSAyMC41MykiIGQ9Ik0xNC42OSAxMC4yMmgxLjU5djguMDRoLTEuNTl6IiBjbGFzcz0ic3QxIi8+JiN4YTsJCTxwYXRoIHRyYW5zZm9ybT0icm90YXRlKDMzMCA4LjUyMyAxNC4yNDQpIiBkPSJNNC40OSAxMy40NWg4LjA0djEuNTlINC40OXoiIGNsYXNzPSJzdDEiLz4mI3hhOwkJPHBhdGggZD0iTTExLjIgNC4xOWgxLjU5djguMDRIMTEuMnoiIGNsYXNzPSJzdDEiLz4mI3hhOwk8L2c+JiN4YTsJPGcgY2xhc3M9InN0MiI+JiN4YTsJCTxjaXJjbGUgY3g9IjkuMTYiIGN5PSIxMC4yMyIgcj0iMi43OCIvPiYjeGE7CQk8Y2lyY2xlIGN4PSIyLjE5IiBjeT0iMTQuMjUiIHI9IjIuMTkiLz4mI3hhOwkJPGNpcmNsZSBjeD0iMTYuMTMiIGN5PSIxNC4yNSIgcj0iMi4xOSIvPiYjeGE7CQk8Y2lyY2xlIGN4PSI5LjE2IiBjeT0iMi4xOSIgcj0iMi4xOSIvPiYjeGE7CTwvZz4mI3hhOzwvc3ZnPg==;" vertex="1" parent="6mvIVdEZMa_-6Su6zqdp-138">
          <mxGeometry x="84" y="7.5" width="13.5" height="15" as="geometry" />
        </mxCell>
        <mxCell id="6mvIVdEZMa_-6Su6zqdp-143" value="" style="group" vertex="1" connectable="0" parent="1">
          <mxGeometry x="470" y="327" width="120" height="30" as="geometry" />
        </mxCell>
        <mxCell id="6mvIVdEZMa_-6Su6zqdp-144" value="Customer&lt;br&gt;Enrichment" style="rounded=0;whiteSpace=wrap;html=1;shadow=1;strokeColor=#548235;fillColor=#E2F0D9;strokeWidth=2;fontStyle=1;fontFamily=Helvetica;fontColor=#548235;spacingLeft=8;" vertex="1" parent="6mvIVdEZMa_-6Su6zqdp-143">
          <mxGeometry width="110" height="30" as="geometry" />
        </mxCell>
        <mxCell id="6mvIVdEZMa_-6Su6zqdp-145" value="" style="html=1;aspect=fixed;strokeColor=none;shadow=0;align=center;verticalAlign=top;fillColor=#548235;shape=mxgraph.gcp2.gear;dashed=1;fontFamily=Helvetica;fontSize=9;" vertex="1" parent="6mvIVdEZMa_-6Su6zqdp-143">
          <mxGeometry x="3" y="5" width="20" height="20" as="geometry" />
        </mxCell>
        <mxCell id="6mvIVdEZMa_-6Su6zqdp-146" value="US" style="text;html=1;align=right;verticalAlign=middle;resizable=0;points=[];autosize=1;spacingRight=2;fontSize=9;fontFamily=Helvetica;fontColor=#548235;" vertex="1" parent="6mvIVdEZMa_-6Su6zqdp-143">
          <mxGeometry x="77" y="-2" width="30" height="20" as="geometry" />
        </mxCell>
        <mxCell id="6mvIVdEZMa_-6Su6zqdp-147" value="" style="editableCssRules=.*;html=1;shape=image;verticalLabelPosition=bottom;labelBackgroundColor=#ffffff;verticalAlign=top;aspect=fixed;imageAspect=0;image=data:image/svg+xml,PHN2ZyB4bWxucz0iaHR0cDovL3d3dy53My5vcmcvMjAwMC9zdmciIHhtbG5zOnY9Imh0dHBzOi8vdmVjdGEuaW8vbmFubyIgd2lkdGg9IjM2NS40NjQ5OTY3NzA0MjQ5MyIgaGVpZ2h0PSIzNzkuMjIyOTk0NDYzNTc3OTUiIHZpZXdCb3g9IjAgMCA5Ni42OTU5OTkxNDU1MDc4MSAxMDAuMzM1OTk4NTM1MTU2MjUiPiYjeGE7PHN0eWxlIHR5cGU9InRleHQvY3NzIj4mI3hhOwkuc3Qwe2ZpbGw6IzQyODVmNDt9JiN4YTsJLnN0MXtmaWxsOiNhZWNiZmE7fSYjeGE7PC9zdHlsZT4mI3hhOwk8cGF0aCBjbGFzcz0ic3QwIiBkPSJNMjkuNzk0IDEwMC4zMzZMNDYuOTIgNTAuMTY4aDQ5Ljc3NnpNMCA5OS42NzFsMTIuOTc2LTQ5LjUwMkgyOS4yMkwxNi44OTcgOTIuMDU0eiIvPiYjeGE7CTxwYXRoIGNsYXNzPSJzdDEiIGQ9Ik0yOS43OTQgMEw0Ni45MiA1MC4xNjhoNDkuNzc2ek0wIC42NjZsMTIuOTc2IDQ5LjUwMkgyOS4yMkwxNi44OTcgOC4yODN6Ii8+JiN4YTs8L3N2Zz4=;" vertex="1" parent="6mvIVdEZMa_-6Su6zqdp-143">
          <mxGeometry x="93" y="14" width="14" height="14" as="geometry" />
        </mxCell>
        <mxCell id="6mvIVdEZMa_-6Su6zqdp-148" value="" style="group;fillColor=#D9D9D9;fontColor=#000000;" vertex="1" connectable="0" parent="1">
          <mxGeometry x="610" y="327.25" width="90" height="30" as="geometry" />
        </mxCell>
        <mxCell id="6mvIVdEZMa_-6Su6zqdp-149" value="Customer&lt;br&gt;API" style="rounded=0;whiteSpace=wrap;html=1;shadow=1;strokeColor=#000000;fillColor=#D9D9D9;strokeWidth=2;fontStyle=1;fontFamily=Helvetica;fontColor=#000000;spacingLeft=6;" vertex="1" parent="6mvIVdEZMa_-6Su6zqdp-148">
          <mxGeometry width="90" height="30" as="geometry" />
        </mxCell>
        <mxCell id="6mvIVdEZMa_-6Su6zqdp-150" value="" style="html=1;aspect=fixed;strokeColor=none;shadow=0;align=center;verticalAlign=top;fillColor=#000000;shape=mxgraph.gcp2.gear;dashed=1;fontFamily=Helvetica;fontSize=9;" vertex="1" parent="6mvIVdEZMa_-6Su6zqdp-148">
          <mxGeometry x="2.25" y="5" width="15" height="15" as="geometry" />
        </mxCell>
        <mxCell id="6mvIVdEZMa_-6Su6zqdp-151" value="BS" style="text;html=1;align=right;verticalAlign=middle;resizable=0;points=[];autosize=1;spacingRight=2;fontSize=9;fontFamily=Helvetica;fontColor=#000000;" vertex="1" parent="6mvIVdEZMa_-6Su6zqdp-148">
          <mxGeometry x="60.5" y="5" width="30" height="20" as="geometry" />
        </mxCell>
        <mxCell id="6mvIVdEZMa_-6Su6zqdp-152" value="" style="endArrow=classic;html=1;strokeColor=#000000;fontFamily=Helvetica;fontSize=12;fontColor=#FFFFFF;strokeWidth=2;exitX=1;exitY=0.5;exitDx=0;exitDy=0;entryX=0;entryY=0.5;entryDx=0;entryDy=0;entryPerimeter=0;" edge="1" parent="1" source="6mvIVdEZMa_-6Su6zqdp-129" target="6mvIVdEZMa_-6Su6zqdp-139">
          <mxGeometry width="50" height="50" relative="1" as="geometry">
            <mxPoint x="590" y="452" as="sourcePoint" />
            <mxPoint x="635" y="444" as="targetPoint" />
          </mxGeometry>
        </mxCell>
        <mxCell id="6mvIVdEZMa_-6Su6zqdp-153" value="" style="endArrow=classic;html=1;strokeColor=#000000;fontFamily=Helvetica;fontSize=12;fontColor=#FFFFFF;strokeWidth=2;exitX=0.5;exitY=0;exitDx=0;exitDy=0;" edge="1" parent="1" source="6mvIVdEZMa_-6Su6zqdp-140">
          <mxGeometry width="50" height="50" relative="1" as="geometry">
            <mxPoint x="600" y="462" as="sourcePoint" />
            <mxPoint x="470" y="342" as="targetPoint" />
          </mxGeometry>
        </mxCell>
        <mxCell id="6mvIVdEZMa_-6Su6zqdp-154" value="" style="endArrow=classic;html=1;strokeColor=#000000;fontFamily=Helvetica;fontSize=12;fontColor=#FFFFFF;strokeWidth=2;exitX=1;exitY=0.5;exitDx=0;exitDy=0;entryX=0;entryY=0.5;entryDx=0;entryDy=0;" edge="1" parent="1" source="6mvIVdEZMa_-6Su6zqdp-144" target="6mvIVdEZMa_-6Su6zqdp-149">
          <mxGeometry width="50" height="50" relative="1" as="geometry">
            <mxPoint x="610" y="472" as="sourcePoint" />
            <mxPoint x="655" y="464" as="targetPoint" />
          </mxGeometry>
        </mxCell>
        <mxCell id="6mvIVdEZMa_-6Su6zqdp-155" value="" style="endArrow=classic;html=1;strokeColor=#000000;fontFamily=Helvetica;fontSize=12;fontColor=#FFFFFF;strokeWidth=2;exitX=1;exitY=0.5;exitDx=0;exitDy=0;entryX=-0.2;entryY=0.5;entryDx=0;entryDy=0;entryPerimeter=0;jumpStyle=gap;" edge="1" parent="1" source="6mvIVdEZMa_-6Su6zqdp-135" target="6mvIVdEZMa_-6Su6zqdp-130">
          <mxGeometry width="50" height="50" relative="1" as="geometry">
            <mxPoint x="320" y="352" as="sourcePoint" />
            <mxPoint x="350" y="352" as="targetPoint" />
          </mxGeometry>
        </mxCell>
        <mxCell id="6mvIVdEZMa_-6Su6zqdp-156" value="" style="endArrow=classic;html=1;strokeColor=#b85450;fontFamily=Helvetica;fontSize=12;fontColor=#FFFFFF;strokeWidth=2;exitX=0.1;exitY=1;exitDx=0;exitDy=0;entryX=0.75;entryY=0;entryDx=0;entryDy=0;fillColor=#f8cecc;exitPerimeter=0;" edge="1" parent="1" source="6mvIVdEZMa_-6Su6zqdp-10" target="6mvIVdEZMa_-6Su6zqdp-14">
          <mxGeometry width="50" height="50" relative="1" as="geometry">
            <mxPoint x="330" y="683" as="sourcePoint" />
            <mxPoint x="360" y="683" as="targetPoint" />
          </mxGeometry>
        </mxCell>
        <mxCell id="6mvIVdEZMa_-6Su6zqdp-157" value="&lt;font style=&quot;font-size: 10px&quot;&gt;Notification&lt;br&gt;(Oracle)&lt;br&gt;&lt;/font&gt;" style="strokeWidth=2;html=1;shape=mxgraph.flowchart.database;whiteSpace=wrap;perimeterSpacing=0;fillOpacity=100;strokeOpacity=100;container=0;shadow=1;fontSize=12;verticalAlign=middle;strokeColor=#C00000;fillColor=#f8cecd;rounded=0;fontColor=#C00000;fontStyle=1;gradientDirection=west;spacingTop=9;" vertex="1" parent="1">
          <mxGeometry x="470" y="596.75" width="61" height="40" as="geometry" />
        </mxCell>
        <mxCell id="6mvIVdEZMa_-6Su6zqdp-158" value="" style="endArrow=classic;html=1;strokeColor=#b85450;fontFamily=Helvetica;fontSize=12;fontColor=#FFFFFF;strokeWidth=2;exitX=1;exitY=0;exitDx=0;exitDy=0;entryX=0;entryY=0.85;entryDx=0;entryDy=0;fillColor=#f8cecc;entryPerimeter=0;" edge="1" parent="1" source="6mvIVdEZMa_-6Su6zqdp-14" target="6mvIVdEZMa_-6Su6zqdp-157">
          <mxGeometry width="50" height="50" relative="1" as="geometry">
            <mxPoint x="369" y="641" as="sourcePoint" />
            <mxPoint x="330" y="659" as="targetPoint" />
          </mxGeometry>
        </mxCell>
        <mxCell id="6mvIVdEZMa_-6Su6zqdp-159" value="" style="endArrow=classic;html=1;strokeColor=#000000;fontFamily=Helvetica;fontSize=12;fontColor=#FFFFFF;strokeWidth=2;exitX=0.5;exitY=1;exitDx=0;exitDy=0;entryX=0.5;entryY=0;entryDx=0;entryDy=0;edgeStyle=elbowEdgeStyle;elbow=vertical;" edge="1" parent="1" source="6mvIVdEZMa_-6Su6zqdp-144" target="6mvIVdEZMa_-6Su6zqdp-35">
          <mxGeometry width="50" height="50" relative="1" as="geometry">
            <mxPoint x="458" y="425" as="sourcePoint" />
            <mxPoint x="480" y="425" as="targetPoint" />
            <Array as="points">
              <mxPoint x="395" y="384" />
            </Array>
          </mxGeometry>
        </mxCell>
        <mxCell id="6mvIVdEZMa_-6Su6zqdp-160" value="" style="endArrow=classic;html=1;strokeColor=#b85450;fontFamily=Helvetica;fontSize=12;fontColor=#FFFFFF;strokeWidth=2;exitX=1;exitY=0.5;exitDx=0;exitDy=0;entryX=0;entryY=0.25;entryDx=0;entryDy=0;fillColor=#f8cecc;edgeStyle=elbowEdgeStyle;jumpStyle=gap;" edge="1" parent="1" source="6mvIVdEZMa_-6Su6zqdp-27" target="6mvIVdEZMa_-6Su6zqdp-6">
          <mxGeometry width="50" height="50" relative="1" as="geometry">
            <mxPoint x="160" y="627" as="sourcePoint" />
            <mxPoint x="220" y="626" as="targetPoint" />
            <Array as="points">
              <mxPoint x="184" y="575" />
            </Array>
          </mxGeometry>
        </mxCell>
        <mxCell id="6mvIVdEZMa_-6Su6zqdp-161" value="" style="endArrow=classic;html=1;strokeColor=#000000;fontFamily=Helvetica;fontSize=12;fontColor=#FFFFFF;strokeWidth=2;exitX=1;exitY=0.5;exitDx=0;exitDy=0;entryX=0;entryY=0.5;entryDx=0;entryDy=0;edgeStyle=elbowEdgeStyle;" edge="1" parent="1" source="6mvIVdEZMa_-6Su6zqdp-51" target="6mvIVdEZMa_-6Su6zqdp-35">
          <mxGeometry x="-0.0894" y="-15" width="50" height="50" relative="1" as="geometry">
            <mxPoint x="132.5" y="419" as="sourcePoint" />
            <mxPoint x="220" y="297" as="targetPoint" />
            <Array as="points">
              <mxPoint x="174" y="438" />
            </Array>
            <mxPoint x="-15" y="15" as="offset" />
          </mxGeometry>
        </mxCell>
        <mxCell id="6mvIVdEZMa_-6Su6zqdp-162" value="" style="edgeStyle=orthogonalEdgeStyle;rounded=0;orthogonalLoop=1;jettySize=auto;html=1;" edge="1" parent="1" source="6mvIVdEZMa_-6Su6zqdp-129" target="6mvIVdEZMa_-6Su6zqdp-136">
          <mxGeometry relative="1" as="geometry" />
        </mxCell>
      </root>
    </mxGraphModel>
  </diagram>
</mxfile>
